<?xml version="1.0" encoding="UTF-8" standalone="no"?>
<!-- Created with Inkscape (http://www.inkscape.org/) -->

<svg
   xmlns:dc="http://purl.org/dc/elements/1.1/"
   xmlns:cc="http://creativecommons.org/ns#"
   xmlns:rdf="http://www.w3.org/1999/02/22-rdf-syntax-ns#"
   xmlns:svg="http://www.w3.org/2000/svg"
   xmlns="http://www.w3.org/2000/svg"
   xmlns:sodipodi="http://sodipodi.sourceforge.net/DTD/sodipodi-0.dtd"
   xmlns:inkscape="http://www.inkscape.org/namespaces/inkscape"
   width="744.09448819"
   height="1052.3622047"
   id="svg4864"
   version="1.1"
   inkscape:version="0.48.5 r10040"
   sodipodi:docname="lin_space_decomposition_observability.pdf">
  <sodipodi:namedview
     id="base"
     pagecolor="#ffffff"
     bordercolor="#666666"
     borderopacity="1.0"
     inkscape:pageopacity="0.0"
     inkscape:pageshadow="2"
     inkscape:zoom="5.884375"
     inkscape:cx="464.69907"
     inkscape:cy="560.58773"
     inkscape:document-units="px"
     inkscape:current-layer="layer1"
     showgrid="false"
     inkscape:window-width="1366"
     inkscape:window-height="705"
     inkscape:window-x="-8"
     inkscape:window-y="-8"
     inkscape:window-maximized="1" />
  <defs
     id="defs4866">
    <marker
       style="overflow:visible"
       id="Arrow2Mendx"
       refX="0"
       refY="0"
       orient="auto"
       inkscape:stockid="Arrow2Mendx">
      <path
         inkscape:connector-curvature="0"
         transform="scale(-0.6,-0.6)"
         d="M 8.7185878,4.0337352 -2.2072895,0.01601326 8.7185884,-4.0017078 c -1.7454984,2.3720609 -1.7354408,5.6174519 -6e-7,8.035443 z"
         style="fill:#ff0000;fill-rule:evenodd;stroke:#ff0000;stroke-width:0.625;stroke-linejoin:round"
         id="path11763" />
    </marker>
    <marker
       style="overflow:visible"
       id="Arrow2MendW"
       refX="0"
       refY="0"
       orient="auto"
       inkscape:stockid="Arrow2MendW">
      <path
         inkscape:connector-curvature="0"
         transform="scale(-0.6,-0.6)"
         d="M 8.7185878,4.0337352 -2.2072895,0.01601326 8.7185884,-4.0017078 c -1.7454984,2.3720609 -1.7354408,5.6174519 -6e-7,8.035443 z"
         style="fill:#0000ff;fill-rule:evenodd;stroke:#0000ff;stroke-width:0.625;stroke-linejoin:round"
         id="path11772" />
    </marker>
    <marker
       style="overflow:visible"
       id="Arrow2Mendn"
       refX="0"
       refY="0"
       orient="auto"
       inkscape:stockid="Arrow2Mendn">
      <path
         inkscape:connector-curvature="0"
         transform="scale(-0.6,-0.6)"
         d="M 8.7185878,4.0337352 -2.2072895,0.01601326 8.7185884,-4.0017078 c -1.7454984,2.3720609 -1.7354408,5.6174519 -6e-7,8.035443 z"
         style="fill:#000000;fill-rule:evenodd;stroke:#000000;stroke-width:0.625;stroke-linejoin:round"
         id="path11769" />
    </marker>
    <marker
       style="overflow:visible"
       id="Arrow2Mendh"
       refX="0"
       refY="0"
       orient="auto"
       inkscape:stockid="Arrow2Mendh">
      <path
         inkscape:connector-curvature="0"
         transform="scale(-0.6,-0.6)"
         d="M 8.7185878,4.0337352 -2.2072895,0.01601326 8.7185884,-4.0017078 c -1.7454984,2.3720609 -1.7354408,5.6174519 -6e-7,8.035443 z"
         style="fill:#808000;fill-rule:evenodd;stroke:#808000;stroke-width:0.625;stroke-linejoin:round"
         id="path11760" />
    </marker>
    <marker
       style="overflow:visible"
       id="Arrow2MendP"
       refX="0"
       refY="0"
       orient="auto"
       inkscape:stockid="Arrow2MendP">
      <path
         inkscape:connector-curvature="0"
         transform="scale(-0.6,-0.6)"
         d="M 8.7185878,4.0337352 -2.2072895,0.01601326 8.7185884,-4.0017078 c -1.7454984,2.3720609 -1.7354408,5.6174519 -6e-7,8.035443 z"
         style="fill:#0000ff;fill-rule:evenodd;stroke:#0000ff;stroke-width:0.625;stroke-linejoin:round"
         id="path11757" />
    </marker>
    <marker
       style="overflow:visible"
       id="Arrow2Mendp"
       refX="0"
       refY="0"
       orient="auto"
       inkscape:stockid="Arrow2Mendp">
      <path
         inkscape:connector-curvature="0"
         transform="scale(-0.6,-0.6)"
         d="M 8.7185878,4.0337352 -2.2072895,0.01601326 8.7185884,-4.0017078 c -1.7454984,2.3720609 -1.7354408,5.6174519 -6e-7,8.035443 z"
         style="fill:#ff6600;fill-rule:evenodd;stroke:#ff6600;stroke-width:0.625;stroke-linejoin:round"
         id="path11754" />
    </marker>
    <marker
       style="overflow:visible"
       id="Arrow2Mend0"
       refX="0"
       refY="0"
       orient="auto"
       inkscape:stockid="Arrow2Mend0">
      <path
         inkscape:connector-curvature="0"
         transform="scale(-0.6,-0.6)"
         d="M 8.7185878,4.0337352 -2.2072895,0.01601326 8.7185884,-4.0017078 c -1.7454984,2.3720609 -1.7354408,5.6174519 -6e-7,8.035443 z"
         style="fill:#000000;fill-rule:evenodd;stroke:#000000;stroke-width:0.625;stroke-linejoin:round"
         id="path11766" />
    </marker>
    <marker
       style="overflow:visible"
       id="Arrow2Mendh0"
       refX="0"
       refY="0"
       orient="auto"
       inkscape:stockid="Arrow2Mendh0">
      <path
         inkscape:connector-curvature="0"
         transform="scale(-0.6,-0.6)"
         d="M 8.7185878,4.0337352 -2.2072895,0.01601326 8.7185884,-4.0017078 c -1.7454984,2.3720609 -1.7354408,5.6174519 -6e-7,8.035443 z"
         style="stroke-width:0.625;stroke-linejoin:round;stroke:#000000;fill-rule:evenodd;fill:#000000"
         id="path5158" />
    </marker>
  </defs>
  <metadata
     id="metadata4869">
    <rdf:RDF>
      <cc:Work
         rdf:about="">
        <dc:format>image/svg+xml</dc:format>
        <dc:type
           rdf:resource="http://purl.org/dc/dcmitype/StillImage" />
        <dc:title></dc:title>
      </cc:Work>
    </rdf:RDF>
  </metadata>
  <g
     inkscape:label="Layer 1"
     inkscape:groupmode="layer"
     id="layer1">
    <rect
       y="470.72183"
       x="434.31189"
       height="40.235977"
       width="34.554756"
       id="rect8612"
       style="fill:#cccccc;fill-opacity:1;stroke:#008000;stroke-width:1;stroke-miterlimit:4;stroke-opacity:1;stroke-dasharray:none;stroke-dashoffset:0" />
    <rect
       transform="matrix(0,1,1,0,0,0)"
       inkscape:transform-center-y="17.087629"
       inkscape:transform-center-x="16.100086"
       style="fill:#cccccc;fill-opacity:1;stroke:#0000ff;stroke-width:1;stroke-miterlimit:4;stroke-opacity:1;stroke-dasharray:none;stroke-dashoffset:0"
       id="rect8614"
       width="22.112654"
       height="31.710432"
       x="511.07806"
       y="528.94952" />
    <rect
       style="fill:#cccccc;fill-opacity:1;stroke:#ff0000;stroke-width:1;stroke-miterlimit:4;stroke-opacity:1;stroke-dasharray:none;stroke-dashoffset:0"
       id="rect9836"
       width="34.554756"
       height="40.235977"
       x="494.31186"
       y="470.72183" />
    <path
       sodipodi:nodetypes="cc"
       style="fill:none;stroke:#000000;stroke-width:1px;stroke-linecap:butt;stroke-linejoin:miter;stroke-opacity:1;marker-end:url(#Arrow2Mendh0)"
       d="M 468.81496,510.95286 450.01148,500.42855"
       id="path9840"
       inkscape:connector-curvature="0" />
    <g
       transform="matrix(-1,0,0,1,962.84138,0.33988316)"
       id="g5699">
      <path
         style="fill:none;stroke:#ff0000;stroke-width:1px;stroke-linecap:butt;stroke-linejoin:miter;stroke-opacity:1;marker-end:url(#Arrow2Mendx)"
         d="m 434.24643,510.73315 7.13755,-24.13171"
         id="path9386"
         inkscape:connector-curvature="0" />
      <path
         inkscape:connector-curvature="0"
         id="path9832"
         d="m 434.24643,510.73315 -23.48963,7.55636"
         style="fill:none;stroke:#0000ff;stroke-width:1px;stroke-linecap:butt;stroke-linejoin:miter;stroke-opacity:1;marker-end:url(#Arrow2MendW)"
         sodipodi:nodetypes="cc" />
      <path
         sodipodi:nodetypes="cc"
         style="fill:none;stroke:#000000;stroke-width:1px;stroke-linecap:butt;stroke-linejoin:miter;stroke-opacity:1;marker-end:url(#Arrow2Mendn)"
         d="M 434.24643,510.73315 415.38292,494.92858"
         id="path9834"
         inkscape:connector-curvature="0" />
      <path
         style="fill:none;stroke:#000000;stroke-width:0.5;stroke-linecap:butt;stroke-linejoin:miter;stroke-miterlimit:4;stroke-opacity:1;stroke-dasharray:1, 0.5;stroke-dashoffset:0"
         d="m 409.67884,518.64868 5.10709,-24.51404 26.91738,-8.41168"
         id="path9842"
         inkscape:connector-curvature="0"
         sodipodi:nodetypes="ccc" />
    </g>
    <path
       sodipodi:type="arc"
       style="fill:#000000;fill-opacity:1;stroke:#000000;stroke-width:1;stroke-miterlimit:4;stroke-opacity:1;stroke-dasharray:none;stroke-dashoffset:0"
       id="path9838"
       sodipodi:cx="228.85776"
       sodipodi:cy="547.12067"
       sodipodi:rx="1.6222525"
       sodipodi:ry="1.6222525"
       d="m 230.48001,547.12067 a 1.6222525,1.6222525 0 1 1 -3.2445,0 1.6222525,1.6222525 0 1 1 3.2445,0 z"
       transform="matrix(1.5605323,0,0,1.5605323,171.54047,-342.73163)" />
    <path
       transform="matrix(1.5605323,0,0,1.5605323,111.42067,-342.66124)"
       d="m 230.48001,547.12067 a 1.6222525,1.6222525 0 1 1 -3.2445,0 1.6222525,1.6222525 0 1 1 3.2445,0 z"
       sodipodi:ry="1.6222525"
       sodipodi:rx="1.6222525"
       sodipodi:cy="547.12067"
       sodipodi:cx="228.85776"
       id="path9384"
       style="fill:#000000;fill-opacity:1;stroke:#000000;stroke-width:1;stroke-miterlimit:4;stroke-opacity:1;stroke-dasharray:none;stroke-dashoffset:0"
       sodipodi:type="arc" />
    <path
       sodipodi:nodetypes="czc"
       inkscape:connector-curvature="0"
       id="path9844"
       d="m 469.94251,475.96329 c 5.8781,0 7.3112,-4.27858 11.17169,-4.27858 3.86049,0 4.35541,4.27858 11.05918,4.27858"
       style="fill:none;stroke:#0000ff;stroke-width:1;stroke-linecap:butt;stroke-linejoin:miter;stroke-miterlimit:4;stroke-opacity:1;stroke-dasharray:3, 1;stroke-dashoffset:0;marker-end:url(#Arrow2MendP)" />
    <path
       style="fill:none;stroke:#ff6600;stroke-width:1;stroke-linecap:butt;stroke-linejoin:miter;stroke-miterlimit:4;stroke-opacity:1;stroke-dasharray:3, 1;stroke-dashoffset:0;marker-end:url(#Arrow2Mendp)"
       d="m 492.99775,503.58573 c -5.8781,0 -7.3112,4.27858 -11.17169,4.27858 -3.86049,0 -4.35541,-4.27858 -11.05918,-4.27858"
       id="path10028"
       inkscape:connector-curvature="0"
       sodipodi:nodetypes="czc" />
    <path
       style="fill:none;stroke:#000000;stroke-width:1;stroke-linecap:butt;stroke-linejoin:miter;stroke-miterlimit:4;stroke-opacity:1;stroke-dasharray:3, 1;stroke-dashoffset:0;marker-end:url(#Arrow2Mend0)"
       d="m 431.99253,505.53591 c -3.59504,3.59504 -9.32559,8.7845 -9.32559,-13.93553 0,-22.72003 5.59318,-20.67977 9.32559,-16.94735"
       id="path10030"
       inkscape:connector-curvature="0"
       sodipodi:nodetypes="czc" />
    <g
       transform="matrix(0.16987522,0,0,0.16987522,396.27545,407.79846)"
       id="g11177"
       style="fill:#008000">
      <g
         style="font-style:normal;font-variant:normal;font-weight:normal;font-stretch:normal;letter-spacing:normal;word-spacing:normal;text-anchor:start;fill:#008000;stroke:#000000;stroke-linecap:butt;stroke-linejoin:miter;stroke-miterlimit:10.43299961;stroke-opacity:1;stroke-dasharray:none;stroke-dashoffset:0"
         id="g11179"
         transform="matrix(1.0629921,0,0,-1.0629921,-186.02362,789.27165)"
         xml:space="preserve"
         stroke-miterlimit="10.433"
         font-style="normal"
         font-variant="normal"
         font-weight="normal"
         font-stretch="normal"
         font-size-adjust="none"
         letter-spacing="normal"
         word-spacing="normal"><path
           style="fill:#008000;stroke-width:0"
           inkscape:connector-curvature="0"
           d="m 468.88,421.84 v 1.75 12.3 c 0,1.04 0,2.7 3.08,2.7 4.23,0 6.33,-1.75 6.33,-7.63 0,-6.43 -1.55,-7.37 -9.41,-7.37 v -1.75 h 1.78 l 7.48,-11.56 c 0.49,-0.8 1.69,-2.74 2.24,-3.49 l 1.3,1.16 -8.97,13.89 c 0.34,0.05 0.54,0.11 0.95,0.11 0.73,0 1.84,0.09 2.58,0.19 0.75,-1.19 6.14,-10.07 10.26,-14.19 h -4.82 l -1.3,-1.16 c 0.34,-0.59 0.5,-0.59 1.64,-0.59 h 6.87 c 0.91,0 1.66,0 1.66,0.89 0,0.41 -0.31,0.75 -0.75,0.86 -1.84,0.39 -4.28,3.69 -5.48,5.28 -0.35,0.48 -2.85,3.78 -6.18,9.16 4.43,0.79 8.72,2.68 8.72,8.62 h -1.75 c 0,-3.23 -1.5,-5.78 -6.62,-6.73 h 0 c 1.39,1.84 1.55,4.48 1.55,6.68 0,2.4 -0.3,5.04 -1.9,7.07 2.04,-0.44 6.97,-1.99 6.97,-7.02 h 1.75 c 0,6.92 -7.32,9.31 -13.2,9.31 H 458 c -0.89,0 -1.68,0 -1.68,-0.89 0,-0.84 0.95,-0.84 1.34,-0.84 2.84,0 3.09,-0.36 3.09,-2.84 v -24.97 l 1.74,-0.1 v 25.16 c 0,0.5 0,1.84 -0.39,2.75 h 5.67 c -0.64,-0.8 -0.64,-1.8 -0.64,-2.55 v -25.36 c 0,-0.5 0,-1.84 0.39,-2.73 h -5.42 c 0.39,0.89 0.39,2.28 0.39,2.73 l -1.74,0.1 c 0,-2.49 -0.25,-2.83 -3.09,-2.83 -0.39,0 -1.34,0 -1.34,-0.86 0,-0.89 0.79,-0.89 1.68,-0.89 h 13.66 c 0.89,0 1.64,0 1.64,0.89 0,0.86 -0.84,0.86 -1.39,0.86 -2.84,0 -3.03,0.39 -3.03,2.83 z"
           id="path11181" /><path
           style="fill:#008000;stroke-width:0"
           inkscape:connector-curvature="0"
           d="m 495.77,426.39 -0.01,-0.05 -0.02,-0.04 -0.01,-0.05 -0.02,-0.05 -0.01,-0.05 -0.01,-0.05 -0.02,-0.05 -0.01,-0.05 -0.03,-0.11 -0.03,-0.12 -0.03,-0.11 -0.02,-0.11 -0.02,-0.05 -0.01,-0.05 -0.01,-0.05 -0.01,-0.05 -0.01,-0.05 -0.01,-0.05 -0.01,-0.04 -0.01,-0.04 -0.01,-0.04 0,-0.03 -0.01,-0.03 -0.01,-0.03 0,-0.03 0,-0.02 0,0 0,-0.01 0,-0.01 0,-0.01 c 0,-0.76 0.62,-1.1 1.18,-1.1 0.63,0 1.18,0.45 1.36,0.76 0.17,0.31 0.46,1.42 0.63,2.16 0.17,0.65 0.54,2.26 0.76,3.14 0.21,0.76 0.43,1.53 0.6,2.33 0.37,1.43 0.45,1.7 1.45,3.14 0.98,1.39 2.63,3.2 5.23,3.2 2.02,0 2.05,-1.78 2.05,-2.44 0,-2.09 -1.48,-5.95 -2.05,-7.42 -0.39,-0.98 -0.53,-1.3 -0.53,-1.89 0,-1.84 1.55,-2.98 3.32,-2.98 3.48,0 5.01,4.79 5.01,5.32 0,0.46 -0.45,0.46 -0.54,0.46 -0.5,0 -0.54,-0.21 -0.68,-0.6 -0.79,-2.78 -2.29,-4.22 -3.68,-4.22 -0.74,0 -0.88,0.49 -0.88,1.22 0,0.8 0.17,1.25 0.8,2.83 0.42,1.08 1.86,4.77 1.86,6.72 0,3.39 -2.69,3.97 -4.53,3.97 -2.9,0 -4.85,-1.77 -5.9,-3.16 -0.25,2.39 -2.29,3.16 -3.73,3.16 -1.5,0 -2.3,-1.08 -2.75,-1.88 -0.77,-1.28 -1.25,-3.28 -1.25,-3.45 0,-0.45 0.48,-0.45 0.59,-0.45 0.49,0 0.52,0.11 0.77,1.04 0.52,2.07 1.19,3.77 2.55,3.77 0.9,0 1.14,-0.77 1.14,-1.7 0,-0.68 -0.32,-1.96 -0.57,-2.89 -0.23,-0.96 -0.57,-2.38 -0.76,-3.14 z"
           id="path11183" /></g>    </g>
    <text
       xml:space="preserve"
       style="font-size:5.47526693px;font-style:normal;font-weight:normal;line-height:125%;letter-spacing:0px;word-spacing:0px;fill:#0000ff;fill-opacity:1;stroke:none;font-family:Sans"
       x="470.32162"
       y="482.20538"
       id="text12015"
       sodipodi:linespacing="125%"><tspan
         sodipodi:role="line"
         id="tspan12017"
         x="470.32162"
         y="482.20538">bijection</tspan><tspan
         sodipodi:role="line"
         x="470.32162"
         y="489.04947"
         id="tspan12019">(FRL)</tspan></text>
    <text
       sodipodi:linespacing="125%"
       id="text12021"
       y="495.38391"
       x="490.60092"
       style="font-size:5.47526693px;font-style:normal;font-weight:normal;line-height:125%;letter-spacing:0px;word-spacing:0px;fill:#ff6600;fill-opacity:1;stroke:none;font-family:Sans"
       xml:space="preserve"><tspan
         y="495.38391"
         x="490.60092"
         id="tspan12023"
         sodipodi:role="line"
         style="text-align:end;text-anchor:end;fill:#ff6600">bijection</tspan><tspan
         id="tspan12025"
         y="502.228"
         x="490.60092"
         sodipodi:role="line"
         style="text-align:end;text-anchor:end;fill:#ff6600">(FRL)</tspan></text>
    <text
       xml:space="preserve"
       style="font-size:4.5789547px;font-style:normal;font-weight:normal;line-height:125%;letter-spacing:0px;word-spacing:0px;fill:#ff6600;fill-opacity:1;stroke:none;font-family:Sans"
       x="504.9245"
       y="-426.77069"
       id="text12027"
       sodipodi:linespacing="125%"
       transform="matrix(0,1,-1,0,0,0)"><tspan
         style="text-align:end;text-anchor:end;fill:#000000"
         sodipodi:role="line"
         x="504.9245"
         y="-426.77069"
         id="tspan12031">bijection (FRL)</tspan></text>
    <g
       transform="matrix(0.13798433,0,0,0.13798433,449.79761,418.2781)"
       id="g11369"
       style="fill:#ff0000">
      <g
         style="font-style:normal;font-variant:normal;font-weight:normal;font-stretch:normal;letter-spacing:normal;word-spacing:normal;text-anchor:start;fill:#ff0000;stroke:#000000;stroke-linecap:butt;stroke-linejoin:miter;stroke-miterlimit:10.43299961;stroke-opacity:1;stroke-dasharray:none;stroke-dashoffset:0"
         word-spacing="normal"
         letter-spacing="normal"
         font-size-adjust="none"
         font-stretch="normal"
         font-weight="normal"
         font-variant="normal"
         font-style="normal"
         stroke-miterlimit="10.433"
         xml:space="preserve"
         transform="matrix(1.0629921,0,0,-1.0629921,-186.02362,789.27165)"
         id="g11371"><path
           style="fill:#ff0000;stroke-width:0"
           inkscape:connector-curvature="0"
           id="path11373"
           d="m 474.16,436.34 0.04,0.16 0.04,0.16 0.04,0.15 0.04,0.15 0.04,0.13 0.05,0.13 0.05,0.13 0.05,0.11 0.06,0.12 0.06,0.1 0.08,0.1 0.08,0.09 0.09,0.09 0.1,0.08 0.11,0.08 0.12,0.07 0.13,0.06 0.15,0.06 0.16,0.06 0.18,0.05 0.09,0.02 0.1,0.02 0.1,0.02 0.11,0.02 0.11,0.02 0.11,0.02 0.12,0.02 0.13,0.01 0.13,0.01 0.14,0.02 0.14,0.01 0.14,0.01 0.15,0.01 0.16,0.01 0.16,0.01 0.17,0.01 0.17,0 0.18,0.01 0.18,0 0.19,0.01 0.2,0 0.2,0 0.21,0 0.22,0 c 1.49,0 1.89,0 1.89,0.96 0,0.59 -0.54,0.59 -0.79,0.59 -1.66,0 -5.74,-0.16 -7.38,-0.16 -1.5,0 -5.14,0.16 -6.62,0.16 -0.36,0 -0.96,0 -0.96,-1 0,-0.55 0.46,-0.55 1.39,-0.55 0.11,0 1.05,0 1.91,-0.09 0.89,-0.11 1.34,-0.16 1.34,-0.8 0,-0.2 -0.06,-0.36 -0.2,-0.95 l -6.67,-26.75 c -0.5,-1.95 -0.61,-2.34 -4.55,-2.34 -0.84,0 -1.34,0 -1.34,-1 0,-0.55 0.45,-0.55 1.34,-0.55 h 23.08 c 1.19,0 1.23,0 1.55,0.84 l 3.92,10.77 c 0.2,0.55 0.2,0.64 0.2,0.7 0,0.19 -0.14,0.55 -0.59,0.55 -0.46,0 -0.5,-0.25 -0.85,-1.05 -1.7,-4.59 -3.89,-10.26 -12.51,-10.26 h -4.67 c -0.71,0 -0.8,0 -1.1,0.04 -0.5,0.05 -0.65,0.1 -0.65,0.5 0,0.14 0,0.25 0.25,1.14 z" /><path
           style="fill:#ff0000;stroke-width:0"
           inkscape:connector-curvature="0"
           id="path11375"
           d="m 507.07,430.54 h -1.18 c -0.1,-0.76 -0.46,-2.83 -0.91,-3.17 -0.27,-0.2 -2.95,-0.2 -3.44,-0.2 h -6.42 c 3.66,3.23 4.88,4.2 6.97,5.84 2.58,2.06 4.98,4.22 4.98,7.53 0,4.22 -3.68,6.8 -8.15,6.8 -4.31,0 -7.25,-3.03 -7.25,-6.23 0,-1.79 1.5,-1.96 1.86,-1.96 0.83,0 1.84,0.6 1.84,1.85 0,0.62 -0.25,1.84 -2.06,1.84 1.08,2.47 3.45,3.23 5.09,3.23 3.49,0 5.3,-2.7 5.3,-5.53 0,-3.03 -2.16,-5.43 -3.28,-6.68 l -8.39,-8.3 c -0.36,-0.31 -0.36,-0.39 -0.36,-1.36 h 14.36 z" /><path
           style="fill:#ff0000;stroke-width:0"
           inkscape:connector-curvature="0"
           id="path11377"
           d="m 528.28,394.25 0,0.02 0,0.03 0,0.01 0,0.02 0,0.01 -0.01,0.02 0,0.01 -0.01,0.02 -0.01,0.02 -0.01,0.02 -0.01,0.02 -0.02,0.03 -0.01,0.02 -0.02,0.03 -0.02,0.03 -0.03,0.03 -0.02,0.03 -0.03,0.04 -0.02,0.02 -0.01,0.02 -0.02,0.02 -0.02,0.02 -0.02,0.02 -0.02,0.03 -0.02,0.02 -0.02,0.02 -0.02,0.03 -0.03,0.02 -0.02,0.03 -0.03,0.03 -0.02,0.03 -0.03,0.03 -0.03,0.03 -0.03,0.03 -0.03,0.03 -0.03,0.03 -0.04,0.04 -0.03,0.03 -0.04,0.04 -0.03,0.03 -0.04,0.04 -0.04,0.04 c -6.22,6.28 -7.81,15.69 -7.81,23.31 0,8.67 1.89,17.35 8.02,23.56 0.63,0.61 0.63,0.71 0.63,0.86 0,0.35 -0.18,0.49 -0.48,0.49 -0.5,0 -4.98,-3.38 -7.92,-9.7 -2.55,-5.49 -3.14,-11.02 -3.14,-15.21 0,-3.89 0.54,-9.9 3.28,-15.54 2.98,-6.13 7.28,-9.36 7.78,-9.36 0.3,0 0.48,0.14 0.48,0.5 z" /><polygon
           style="fill:#ff0000;stroke-width:0"
           id="polygon11379"
           points="538.99,441.57 543.82,441.57 543.82,443.56 536.99,443.56 536.99,393.75 543.82,393.75 543.82,395.73 538.99,395.73 " /><path
           style="fill:#ff0000;stroke-width:0"
           inkscape:connector-curvature="0"
           id="path11381"
           d="m 555.18,426.12 h 4.69 c 0.98,0 1.48,0 1.48,1 0,0.55 -0.5,0.55 -1.39,0.55 h -4.39 c 1.8,7.08 2.05,8.08 2.05,8.37 0,0.85 -0.6,1.35 -1.44,1.35 -0.16,0 -1.55,-0.05 -2,-1.8 l -1.94,-7.92 h -4.69 c -1,0 -1.5,0 -1.5,-0.94 0,-0.61 0.41,-0.61 1.41,-0.61 h 4.38 c -3.58,-14.14 -3.79,-14.98 -3.79,-15.89 0,-2.69 1.9,-4.58 4.58,-4.58 5.08,0 7.92,7.27 7.92,7.67 0,0.5 -0.39,0.5 -0.59,0.5 -0.45,0 -0.5,-0.15 -0.75,-0.7 -2.14,-5.17 -4.78,-6.37 -6.47,-6.37 -1.04,0 -1.54,0.65 -1.54,2.29 0,1.19 0.09,1.55 0.29,2.39 z" /><path
           style="fill:#ff0000;stroke-width:0"
           inkscape:connector-curvature="0"
           id="path11383"
           d="m 580.91,409.87 -0.01,0.71 -0.02,0.68 -0.03,0.66 -0.04,0.64 -0.06,0.62 -0.07,0.6 -0.09,0.57 -0.11,0.56 -0.13,0.55 -0.15,0.53 -0.16,0.51 -0.2,0.5 -0.21,0.49 -0.24,0.48 -0.26,0.47 -0.14,0.23 -0.15,0.23 c -1.07,1.61 -3.23,3 -6.03,3 v -0.98 c 1.89,0 3.71,-1.14 4.33,-3.17 0.56,-1.88 0.59,-4.39 0.59,-7.43 0,-2.57 0,-5.15 -0.45,-7.34 -0.7,-3.17 -3.06,-3.94 -4.47,-3.94 h 0 c -1.59,0 -3.72,0.94 -4.42,3.8 -0.48,2.05 -0.48,4.91 -0.48,7.48 0,2.55 0,5.21 0.51,7.11 0.74,2.75 2.97,3.49 4.39,3.49 v 0.98 c -8.08,0 -8.08,-9.51 -8.08,-12.03 0,-2.5 0,-11.81 8.08,-11.81 8.1,0 8.1,9.31 8.1,11.81 z" /><path
           style="fill:#ff0000;stroke-width:0"
           inkscape:connector-curvature="0"
           id="path11385"
           d="m 595.47,406.25 0,0.3 -0.02,0.3 -0.01,0.29 -0.03,0.28 -0.03,0.27 -0.04,0.26 -0.04,0.26 -0.05,0.24 -0.06,0.24 -0.07,0.23 -0.07,0.22 -0.07,0.21 -0.09,0.2 -0.09,0.19 -0.09,0.19 -0.1,0.17 -0.11,0.16 -0.11,0.16 -0.12,0.14 -0.12,0.13 -0.13,0.13 -0.13,0.11 -0.14,0.1 -0.15,0.1 -0.15,0.08 -0.15,0.07 -0.16,0.06 -0.16,0.05 -0.17,0.04 -0.17,0.03 -0.18,0.01 -0.18,0.01 c -1.64,0 -2.64,-1.25 -2.64,-2.64 0,-1.34 1,-2.64 2.64,-2.64 0.6,0 1.25,0.2 1.75,0.64 0.14,0.11 0.2,0.16 0.25,0.16 0.05,0 0.1,-0.05 0.1,-0.75 0,-3.69 -1.74,-6.68 -3.4,-8.32 -0.54,-0.54 -0.54,-0.65 -0.54,-0.79 0,-0.36 0.25,-0.55 0.5,-0.55 0.54,0 4.53,3.83 4.53,9.66 z" /><path
           style="fill:#ff0000;stroke-width:0"
           inkscape:connector-curvature="0"
           id="path11387"
           d="m 617.7,426.12 h 4.69 c 0.99,0 1.49,0 1.49,1 0,0.55 -0.5,0.55 -1.4,0.55 h -4.39 c 1.8,7.08 2.05,8.08 2.05,8.37 0,0.85 -0.59,1.35 -1.44,1.35 -0.15,0 -1.54,-0.05 -2,-1.8 l -1.93,-7.92 h -4.69 c -1,0 -1.5,0 -1.5,-0.94 0,-0.61 0.4,-0.61 1.4,-0.61 h 4.38 c -3.58,-14.14 -3.78,-14.98 -3.78,-15.89 0,-2.69 1.89,-4.58 4.58,-4.58 5.07,0 7.92,7.27 7.92,7.67 0,0.5 -0.39,0.5 -0.6,0.5 -0.45,0 -0.5,-0.15 -0.75,-0.7 -2.14,-5.17 -4.78,-6.37 -6.46,-6.37 -1.05,0 -1.55,0.65 -1.55,2.29 0,1.19 0.09,1.55 0.3,2.39 z" /><path
           style="fill:#ff0000;stroke-width:0"
           inkscape:connector-curvature="0"
           id="path11389"
           d="m 637.11,420.92 0,0.04 0,0.04 0,0.05 0,0.04 0,0.03 0,0.04 0,0.04 0,0.03 0,0.04 0,0.03 -0.01,0.03 0,0.03 0,0.03 0,0.03 -0.01,0.03 0,0.02 -0.01,0.03 0,0.02 -0.01,0.03 0,0.02 -0.01,0.04 -0.02,0.04 -0.02,0.03 -0.01,0.03 -0.03,0.03 -0.02,0.03 -0.03,0.02 -0.03,0.02 -0.03,0.02 -0.04,0.01 -0.04,0.01 -0.04,0.02 -0.03,0 -0.02,0 -0.03,0.01 -0.02,0 -0.03,0.01 -0.03,0 -0.03,0 -0.03,0 -0.03,0 -0.04,0.01 -0.03,0 -0.04,0 -0.03,0 -0.04,0 -0.04,0 -0.04,0 -0.04,0 -0.04,0 -0.05,0 -0.04,0 c -2.24,-2.2 -5.39,-2.23 -6.83,-2.23 v -1.25 c 0.84,0 3.14,0 5.04,0.97 v -17.77 c 0,-1.16 0,-1.61 -3.48,-1.61 h -1.31 v -1.25 c 0.62,0.03 4.91,0.14 6.2,0.14 1.08,0 5.47,-0.11 6.24,-0.14 v 1.25 h -1.33 c -3.49,0 -3.49,0.45 -3.49,1.61 z" /><polygon
           style="fill:#ff0000;stroke-width:0"
           id="polygon11391"
           points="653.8,441.57 653.8,395.73 648.97,395.73 648.97,393.75 655.8,393.75 655.8,443.56 648.97,443.56 648.97,441.57 " /><path
           style="fill:#ff0000;stroke-width:0"
           inkscape:connector-curvature="0"
           id="path11393"
           d="m 671.78,406.25 0,0.3 -0.01,0.3 -0.02,0.29 -0.02,0.28 -0.03,0.27 -0.04,0.26 -0.05,0.26 -0.05,0.24 -0.06,0.24 -0.06,0.23 -0.07,0.22 -0.08,0.21 -0.08,0.2 -0.09,0.19 -0.1,0.19 -0.1,0.17 -0.1,0.16 -0.11,0.16 -0.12,0.14 -0.13,0.13 -0.12,0.13 -0.14,0.11 -0.14,0.1 -0.14,0.1 -0.15,0.08 -0.15,0.07 -0.16,0.06 -0.16,0.05 -0.17,0.04 -0.17,0.03 -0.18,0.01 -0.18,0.01 c -1.64,0 -2.64,-1.25 -2.64,-2.64 0,-1.34 1,-2.64 2.64,-2.64 0.59,0 1.25,0.2 1.75,0.64 0.14,0.11 0.2,0.16 0.25,0.16 0.05,0 0.09,-0.05 0.09,-0.75 0,-3.69 -1.73,-6.68 -3.39,-8.32 -0.55,-0.54 -0.55,-0.65 -0.55,-0.79 0,-0.36 0.25,-0.55 0.5,-0.55 0.55,0 4.53,3.83 4.53,9.66 z" /><path
           style="fill:#ff0000;stroke-width:0"
           inkscape:connector-curvature="0"
           id="path11395"
           d="m 697.11,421.84 v 1.75 12.3 c 0,1.04 0,2.7 3.08,2.7 4.24,0 6.33,-1.75 6.33,-7.63 0,-6.43 -1.55,-7.37 -9.41,-7.37 v -1.75 h 1.79 l 7.48,-11.56 c 0.48,-0.8 1.69,-2.74 2.23,-3.49 l 1.3,1.16 -8.97,13.89 c 0.34,0.05 0.55,0.11 0.96,0.11 0.73,0 1.84,0.09 2.57,0.19 0.75,-1.19 6.14,-10.07 10.27,-14.19 h -4.83 l -1.3,-1.16 c 0.35,-0.59 0.5,-0.59 1.64,-0.59 h 6.88 c 0.9,0 1.65,0 1.65,0.89 0,0.41 -0.31,0.75 -0.75,0.86 -1.84,0.39 -4.28,3.69 -5.48,5.28 -0.34,0.48 -2.84,3.78 -6.17,9.16 4.42,0.79 8.72,2.68 8.72,8.62 h -1.75 c 0,-3.23 -1.5,-5.78 -6.63,-6.73 h 0 c 1.39,1.84 1.55,4.48 1.55,6.68 0,2.4 -0.3,5.04 -1.89,7.07 2.03,-0.44 6.97,-1.99 6.97,-7.02 h 1.75 c 0,6.92 -7.33,9.31 -13.2,9.31 h -15.66 c -0.89,0 -1.69,0 -1.69,-0.89 0,-0.84 0.95,-0.84 1.35,-0.84 2.84,0 3.09,-0.36 3.09,-2.84 v -24.97 l 1.73,-0.1 v 25.16 c 0,0.5 0,1.84 -0.39,2.75 H 696 c -0.64,-0.8 -0.64,-1.8 -0.64,-2.55 v -25.36 c 0,-0.5 0,-1.84 0.39,-2.73 h -5.42 c 0.39,0.89 0.39,2.28 0.39,2.73 l -1.73,0.1 c 0,-2.49 -0.25,-2.83 -3.09,-2.83 -0.4,0 -1.35,0 -1.35,-0.86 0,-0.89 0.8,-0.89 1.69,-0.89 h 13.66 c 0.88,0 1.63,0 1.63,0.89 0,0.86 -0.84,0.86 -1.38,0.86 -2.85,0 -3.04,0.39 -3.04,2.83 z" /><path
           style="fill:#ff0000;stroke-width:0"
           inkscape:connector-curvature="0"
           id="path11397"
           d="m 722.37,419.95 -0.02,-0.09 -0.02,-0.09 -0.02,-0.08 -0.02,-0.08 -0.02,-0.07 -0.02,-0.07 -0.03,-0.07 -0.02,-0.06 -0.02,-0.06 -0.03,-0.06 -0.02,-0.05 -0.03,-0.05 -0.04,-0.05 -0.03,-0.04 -0.04,-0.04 -0.04,-0.03 -0.04,-0.04 -0.05,-0.03 -0.05,-0.03 -0.05,-0.02 -0.06,-0.03 -0.07,-0.02 -0.07,-0.02 -0.07,-0.01 -0.08,-0.02 -0.04,0 -0.05,-0.01 -0.04,-0.01 -0.05,0 -0.05,0 -0.05,-0.01 -0.05,0 -0.05,0 -0.06,-0.01 -0.06,0 -0.05,0 -0.07,0 -0.06,0 -0.06,0 c -0.45,0 -0.94,0 -0.94,-0.74 0,-0.39 0.31,-0.53 0.49,-0.53 0.9,0 2.06,0.14 3,0.14 1.18,0 2.5,-0.14 3.65,-0.14 0.31,0 0.7,0.11 0.7,0.77 0,0.5 -0.5,0.5 -0.9,0.5 -0.78,0 -1.72,0 -1.72,0.41 0,0.18 0.25,1.09 0.39,1.6 0.42,1.85 0.91,3.74 1.28,5.19 0.42,-0.69 1.5,-2.04 3.6,-2.04 v 0.96 c -2.47,0 -3.1,2.69 -3.1,3.04 0,0.14 0.06,0.39 0.1,0.53 l 1.75,7 c 2.01,2.68 3.76,3.2 4.87,3.2 1.36,0 2.55,-1.02 2.55,-3.38 0,-1.43 -0.77,-4.98 -1.82,-7.01 -0.87,-1.7 -2.57,-3.38 -4.35,-3.38 v -0.96 c 4.25,0 8.95,4.7 8.95,9.89 0,4.07 -2.83,5.81 -5.22,5.81 -2.17,0 -4.02,-1.45 -4.95,-2.44 -0.6,1.99 -2.55,2.44 -3.6,2.44 -1.36,0 -2.18,-0.91 -2.75,-1.85 -0.7,-1.18 -1.25,-3.26 -1.25,-3.48 0,-0.45 0.49,-0.45 0.6,-0.45 0.48,0 0.51,0.11 0.76,1.04 0.52,2.04 1.19,3.77 2.55,3.77 0.91,0 1.14,-0.77 1.14,-1.7 0,-0.39 -0.06,-0.85 -0.11,-1.05 z" /><path
           style="fill:#ff0000;stroke-width:0"
           inkscape:connector-curvature="0"
           id="path11399"
           d="m 757.19,418.65 0,0.37 -0.01,0.39 0,0.39 -0.02,0.41 -0.04,0.84 -0.06,0.88 -0.08,0.92 -0.11,0.95 -0.13,0.97 -0.16,1.01 -0.2,1.02 -0.23,1.03 -0.27,1.05 -0.3,1.06 -0.35,1.07 -0.39,1.07 -0.22,0.53 -0.22,0.53 -0.24,0.53 -0.25,0.53 c -2.98,6.12 -7.26,9.36 -7.76,9.36 -0.3,0 -0.5,-0.19 -0.5,-0.49 0,-0.15 0,-0.25 0.93,-1.15 4.89,-4.92 7.74,-12.85 7.74,-23.27 0,-8.51 -1.85,-17.28 -8.04,-23.56 -0.63,-0.59 -0.63,-0.7 -0.63,-0.84 0,-0.3 0.2,-0.5 0.5,-0.5 0.5,0 4.96,3.39 7.92,9.71 2.53,5.47 3.12,11 3.12,15.19 z" /></g>    </g>
    <g
       id="g6236"
       transform="matrix(0.13459311,0,0,0.13459311,394.99072,429.70072)">
      <g
         word-spacing="normal"
         letter-spacing="normal"
         font-size-adjust="none"
         font-stretch="normal"
         font-weight="normal"
         font-variant="normal"
         font-style="normal"
         stroke-miterlimit="10.433"
         xml:space="preserve"
         transform="matrix(1.0629921,0,0,-1.0629921,-186.02362,789.27165)"
         id="g6238"
         style="font-style:normal;font-variant:normal;font-weight:normal;font-stretch:normal;letter-spacing:normal;word-spacing:normal;text-anchor:start;fill:none;stroke:#000000;stroke-linecap:butt;stroke-linejoin:miter;stroke-miterlimit:10.43299961;stroke-opacity:1;stroke-dasharray:none;stroke-dashoffset:0"><path
           id="path6240"
           d="m 477.19,423.14 0.45,0.12 0.44,0.12 0.44,0.14 0.43,0.15 0.42,0.16 0.42,0.17 0.4,0.18 0.4,0.19 0.39,0.19 0.37,0.21 0.37,0.22 0.35,0.22 0.34,0.23 0.33,0.24 0.32,0.25 0.3,0.26 0.29,0.27 0.27,0.27 0.26,0.28 0.24,0.29 0.23,0.29 0.21,0.31 0.19,0.3 0.18,0.32 0.15,0.32 0.14,0.33 0.12,0.33 0.09,0.35 0.08,0.34 0.06,0.35 0.03,0.36 0.01,0.36 c 0,4.78 -5.67,8.97 -13,8.97 h -15.64 v -1.55 h 1.19 c 3.84,0 3.93,-0.54 3.93,-2.34 v -26.25 c 0,-1.8 -0.09,-2.34 -3.93,-2.34 h -1.19 v -1.55 c 1.78,0.16 5.33,0.16 7.27,0.16 1.93,0 5.48,0 7.28,-0.16 v 1.55 h -1.21 c -3.82,0 -3.93,0.54 -3.93,2.34 v 12.59 1.11 12.89 c 0,1.16 0,1.75 1.09,1.91 0.5,0.09 1.95,0.09 2.95,0.09 4.47,0 10.07,-0.2 10.07,-7.42 0,-3.44 -1.21,-7.47 -8.58,-7.47 h -5.53 v -1.11 h 5.73 c 0.8,0 2.89,0 4.63,-1.68 1.9,-1.8 1.9,-3.35 1.9,-6.68 0,-3.25 0,-5.23 2.03,-7.12 2.05,-1.8 4.78,-2.09 6.28,-2.09 3.89,0 4.74,4.07 4.74,5.48 0,0.3 0,0.84 -0.64,0.84 -0.55,0 -0.55,-0.45 -0.61,-0.79 -0.3,-3.55 -2.03,-4.44 -3.28,-4.44 -2.44,0 -2.85,2.55 -3.55,7.17 l -0.64,3.99 c -0.89,3.18 -3.34,4.84 -6.08,5.78 z"
           inkscape:connector-curvature="0"
           style="fill:#000000;stroke-width:0" /><path
           id="path6242"
           d="m 508.83,409.98 0.02,-0.19 0.03,-0.18 0.04,-0.19 0.04,-0.18 0.05,-0.19 0.06,-0.18 0.06,-0.18 0.07,-0.18 0.07,-0.18 0.08,-0.17 0.09,-0.18 0.09,-0.16 0.1,-0.16 0.11,-0.16 0.12,-0.16 0.11,-0.14 0.13,-0.14 0.13,-0.14 0.14,-0.13 0.15,-0.12 0.15,-0.12 0.15,-0.1 0.17,-0.1 0.16,-0.09 0.18,-0.08 0.18,-0.07 0.19,-0.06 0.19,-0.05 0.2,-0.04 0.21,-0.03 0.21,-0.02 0.21,-0.01 c 1.03,0 4.08,0.71 4.08,4.74 v 2.78 h -1.25 v -2.78 c 0,-2.89 -1.23,-3.19 -1.8,-3.19 -1.64,0 -1.84,2.23 -1.84,2.48 v 9.97 c 0,2.1 0,4.03 -1.78,5.88 -1.95,1.93 -4.44,2.73 -6.83,2.73 -4.09,0 -7.53,-2.33 -7.53,-5.62 0,-1.49 1,-2.35 2.3,-2.35 1.39,0 2.29,1 2.29,2.3 0,0.59 -0.25,2.23 -2.54,2.3 1.34,1.73 3.78,2.28 5.37,2.28 2.45,0 5.28,-1.94 5.28,-6.38 v -1.84 -1.05 -4.98 c 0,-4.74 -3.58,-6.42 -5.83,-6.42 -2.43,0 -4.48,1.75 -4.48,4.23 0,2.73 2.09,6.88 10.31,7.17 h 0 v 1.05 c -2.53,-0.14 -6.01,-0.3 -9.15,-1.8 -3.74,-1.69 -4.99,-4.28 -4.99,-6.47 0,-4.03 4.83,-5.28 7.97,-5.28 3.3,0 5.58,1.99 6.53,4.33 z"
           inkscape:connector-curvature="0"
           style="fill:#000000;stroke-width:0" /><path
           id="path6244"
           d="m 522.68,423.34 v -13.36 c 0,-2.23 -0.55,-2.23 -3.89,-2.23 v -1.55 c 1.75,0.05 4.28,0.16 5.62,0.16 1.3,0 3.89,-0.11 5.58,-0.16 v 1.55 c -3.33,0 -3.87,0 -3.87,2.23 v 9.17 c 0,5.19 3.53,7.97 6.72,7.97 3.14,0 3.68,-2.69 3.68,-5.53 v -11.61 c 0,-2.23 -0.54,-2.23 -3.89,-2.23 v -1.55 c 1.75,0.05 4.3,0.16 5.64,0.16 1.3,0 3.88,-0.11 5.58,-0.16 v 1.55 c -2.59,0 -3.84,0 -3.89,1.5 v 9.51 c 0,4.28 0,5.83 -1.55,7.61 -0.68,0.86 -2.34,1.84 -5.21,1.84 -3.65,0 -5.99,-2.14 -7.38,-5.21 v 5.21 l -7.03,-0.54 v -1.55 c 3.48,0 3.89,-0.34 3.89,-2.78 z"
           inkscape:connector-curvature="0"
           style="fill:#000000;stroke-width:0" /><path
           id="path6246"
           d="m 550.2,412.82 0,0.03 0,0.02 0,0.03 0,0.04 0,0.04 0,0.05 0,0.05 0.01,0.06 0,0.05 0.01,0.07 0.01,0.06 0.01,0.07 0.01,0.07 0.02,0.08 0.01,0.08 0.02,0.08 0.02,0.08 0.03,0.08 0.02,0.09 0.03,0.09 0.03,0.09 0.04,0.09 0.04,0.09 0.04,0.1 0.05,0.09 0.05,0.1 0.05,0.09 0.06,0.1 0.06,0.09 0.07,0.1 0.07,0.09 0.08,0.1 c 1.95,-1.39 3.98,-1.55 4.94,-1.55 v 1.14 c -4.35,0 -4.35,4.99 -4.35,6.14 0,1.35 0.07,2.94 0.8,4.17 0.41,0.61 1.55,2 3.55,2 4.32,0 4.32,-4.98 4.32,-6.12 0,-1.34 -0.04,-2.94 -0.79,-4.19 -0.39,-0.59 -1.55,-2 -3.53,-2 h 0 v -1.14 c 4.62,0 8.06,3.44 8.06,7.28 0,1.85 -0.8,3.69 -2.03,4.83 1.78,1.69 3.58,1.94 4.48,1.94 0.1,0 0.35,0 0.5,-0.05 -0.56,-0.2 -0.79,-0.75 -0.79,-1.34 0,-0.85 0.64,-1.44 1.43,-1.44 0.5,0 1.44,0.34 1.44,1.48 0,0.85 -0.59,2.44 -2.53,2.44 -1,0 -3.19,-0.3 -5.28,-2.33 -2.1,1.64 -4.19,1.78 -5.28,1.78 -4.64,0 -8.08,-3.43 -8.08,-7.26 0,-2.19 1.09,-4.09 2.34,-5.14 -0.64,-0.74 -1.54,-2.39 -1.54,-4.13 0,-1.54 0.65,-3.43 2.2,-4.43 -3,-0.85 -4.6,-2.99 -4.6,-4.99 0,-3.58 4.94,-6.33 11.02,-6.33 l 0.05,1.14 c -5.03,0 -8.47,2.55 -8.47,5.19 0,2.3 1.89,4.14 4.09,4.28 h 2.94 c 4.28,0 9.86,0 9.86,-4.28 0,-2.69 -3.53,-5.19 -8.42,-5.19 h 0 l -0.05,-1.14 c 5.88,0 11.06,2.55 11.06,6.43 0,1.75 -0.7,4.29 -3.23,5.68 -2.64,1.39 -5.53,1.39 -8.58,1.39 -1.25,0 -3.39,0 -3.73,0.05 -1.6,0.2 -2.64,1.75 -2.64,3.34 z"
           inkscape:connector-curvature="0"
           style="fill:#000000;stroke-width:0" /><path
           id="path6248"
           d="m 575.4,417.71 0.05,1.05 c 0.3,7.42 4.48,8.66 6.19,8.66 5.12,0 5.62,-6.72 5.62,-8.66 h -11.81 l -0.05,-1.05 h 13.91 c 1.09,0 1.23,0 1.23,1.05 0,4.92 -2.69,9.75 -8.9,9.75 -5.79,0 -10.38,-5.12 -10.38,-11.36 0,-6.67 5.24,-11.5 10.97,-11.5 6.08,0 8.31,5.53 8.31,6.47 0,0.5 -0.39,0.61 -0.64,0.61 -0.45,0 -0.55,-0.3 -0.65,-0.7 -1.74,-5.13 -6.22,-5.13 -6.72,-5.13 -2.5,0 -4.49,1.49 -5.63,3.33 -1.5,2.39 -1.5,5.69 -1.5,7.48 z"
           inkscape:connector-curvature="0"
           style="fill:#000000;stroke-width:0" /><path
           id="path6250"
           d="m 608.31,394.25 0,0.02 0,0.03 0,0.01 0,0.02 -0.01,0.01 0,0.02 -0.01,0.01 0,0.02 -0.01,0.02 -0.01,0.02 -0.01,0.02 -0.02,0.03 -0.01,0.02 -0.02,0.03 -0.02,0.03 -0.03,0.03 -0.02,0.03 -0.03,0.04 -0.02,0.02 -0.02,0.02 -0.01,0.02 -0.02,0.02 -0.02,0.02 -0.02,0.03 -0.02,0.02 -0.02,0.02 -0.03,0.03 -0.02,0.02 -0.02,0.03 -0.03,0.03 -0.03,0.03 -0.02,0.03 -0.03,0.03 -0.03,0.03 -0.03,0.03 -0.04,0.03 -0.03,0.04 -0.03,0.03 -0.04,0.04 -0.03,0.03 -0.04,0.04 -0.04,0.04 c -6.22,6.28 -7.81,15.69 -7.81,23.31 0,8.67 1.89,17.35 8.01,23.56 0.64,0.61 0.64,0.71 0.64,0.86 0,0.35 -0.18,0.49 -0.48,0.49 -0.5,0 -4.99,-3.38 -7.92,-9.7 -2.55,-5.49 -3.14,-11.02 -3.14,-15.21 0,-3.89 0.54,-9.9 3.28,-15.54 2.98,-6.13 7.28,-9.36 7.78,-9.36 0.3,0 0.48,0.14 0.48,0.5 z"
           inkscape:connector-curvature="0"
           style="fill:#000000;stroke-width:0" /><path
           id="path6252"
           d="m 620.11,410.84 0.25,0.39 0.24,0.38 0.22,0.38 0.22,0.37 0.2,0.37 0.2,0.36 0.19,0.35 0.18,0.35 0.17,0.35 0.16,0.34 0.16,0.33 0.15,0.33 0.14,0.33 0.13,0.32 0.25,0.62 0.22,0.61 0.21,0.6 0.18,0.57 0.17,0.56 0.15,0.54 0.14,0.53 0.14,0.52 0.12,0.5 c 1.73,6.87 3.64,12.86 6.72,16.3 0.61,0.65 1,1.09 2.59,1.09 3.44,0 3.54,-3.44 3.54,-4.12 0,-0.91 -0.25,-1.6 -0.25,-1.85 0,-0.36 0.31,-0.36 0.35,-0.36 0.8,0 2.15,0.55 3.4,1.46 0.88,0.68 1.34,1.18 1.34,3.23 0,2.69 -1.41,4.73 -4.19,4.73 -1.59,0 -5.98,-0.4 -10.86,-5.32 -3.98,-4.1 -6.33,-13.07 -7.28,-16.8 -0.89,-3.44 -1.3,-4.99 -2.78,-7.97 -0.36,-0.59 -1.66,-2.8 -2.35,-3.44 -1.34,-1.25 -1.84,-2.14 -1.84,-2.39 0,-0.09 0.09,-0.29 0.46,-0.29 0.18,0 1.23,0.2 2.53,1.04 0.84,0.5 0.95,0.6 2.09,1.8 2.5,-0.06 4.23,-0.5 7.38,-1.41 2.54,-0.68 5.07,-1.43 7.62,-1.43 4.03,0 8.13,3.03 9.72,5.23 0.98,1.34 1.29,2.58 1.29,2.73 0,0.35 -0.31,0.35 -0.35,0.35 -0.8,0 -1.99,-0.55 -2.85,-1.14 -1.34,-0.85 -1.43,-1.14 -1.73,-2 -0.25,-0.8 -0.55,-1.19 -0.75,-1.49 -0.39,-0.59 -0.45,-0.59 -1.2,-0.59 -2.4,0 -4.88,0.73 -8.16,1.64 -1.41,0.39 -4.14,1.19 -6.64,1.19 -0.64,0 -1.35,-0.05 -1.99,-0.19 z"
           inkscape:connector-curvature="0"
           style="fill:#000000;stroke-width:0" /><path
           id="path6254"
           d="m 656.73,432.87 0.26,0.12 0.26,0.11 0.24,0.11 0.24,0.1 0.23,0.1 0.22,0.1 0.21,0.09 0.21,0.09 0.2,0.08 0.19,0.08 0.18,0.08 0.18,0.07 0.17,0.08 0.16,0.06 0.16,0.07 0.15,0.06 0.14,0.06 0.14,0.06 0.14,0.06 0.13,0.05 0.12,0.06 0.12,0.05 0.11,0.05 0.11,0.04 0.11,0.05 0.1,0.04 0.19,0.09 0.18,0.08 0.17,0.08 c 0.67,0.27 0.98,0.41 0.98,1.08 0,0.59 -0.45,1.11 -1.08,1.11 -0.25,0 -0.31,0 -0.73,-0.31 l -4.74,-3.17 0.52,5.15 c 0.08,0.63 0,1.5 -1.05,1.5 -0.42,0 -1.08,-0.28 -1.08,-1.04 0,-0.32 0.15,-1.36 0.18,-1.71 0.07,-0.59 0.31,-3.11 0.39,-3.9 l -4.71,3.17 c -0.36,0.2 -0.45,0.31 -0.76,0.31 -0.64,0 -1.1,-0.52 -1.1,-1.11 0,-0.7 0.43,-0.87 0.74,-1.01 l 5.26,-2.19 c -2.85,-1.27 -4.14,-1.75 -5.01,-2.17 -0.66,-0.29 -0.99,-0.43 -0.99,-1.08 0,-0.6 0.46,-1.11 1.1,-1.11 0.23,0 0.31,0 0.72,0.31 l 4.75,3.17 -0.57,-5.61 c 0,-0.76 0.66,-1.04 1.08,-1.04 0.42,0 1.08,0.28 1.08,1.04 0,0.32 -0.14,1.36 -0.17,1.71 -0.06,0.59 -0.31,3.09 -0.38,3.9 l 4.17,-2.79 c 0.91,-0.69 0.99,-0.69 1.3,-0.69 0.63,0 1.08,0.51 1.08,1.11 0,0.7 -0.42,0.87 -0.73,1.01 z"
           inkscape:connector-curvature="0"
           style="fill:#000000;stroke-width:0" /><path
           id="path6256"
           d="m 663.98,403.11 -0.01,0.35 -0.02,0.35 -0.04,0.34 -0.06,0.33 -0.07,0.32 -0.09,0.31 -0.1,0.29 -0.11,0.29 -0.13,0.28 -0.14,0.27 -0.16,0.25 -0.16,0.25 -0.18,0.23 -0.19,0.22 -0.2,0.21 -0.21,0.21 -0.22,0.18 -0.23,0.18 -0.24,0.17 -0.25,0.15 -0.25,0.15 -0.27,0.13 -0.27,0.11 -0.28,0.11 -0.28,0.1 -0.29,0.08 -0.3,0.07 -0.3,0.06 -0.3,0.04 -0.31,0.03 -0.32,0.02 -0.32,0.01 c -5.17,0 -10.04,-4.84 -10.04,-9.61 0,-3.48 2.54,-6.09 6.34,-6.09 l 0.03,0.96 c -1.73,0 -3.48,1.13 -3.48,3.88 0,1.42 0.67,4.84 2.03,6.83 1.5,2.15 3.51,3.06 5.08,3.06 1.89,0 3.48,-1.3 3.48,-3.87 0,-0.83 -0.4,-4.29 -1.95,-6.72 -1.32,-2.05 -3.41,-3.18 -5.16,-3.18 h 0 l -0.03,-0.96 c 4.99,0 10,4.59 10,9.61 z"
           inkscape:connector-curvature="0"
           style="fill:#000000;stroke-width:0" /><path
           id="path6258"
           d="m 682.91,418.65 0,0.37 -0.01,0.39 -0.01,0.39 -0.01,0.41 -0.04,0.84 -0.06,0.88 -0.08,0.92 -0.11,0.95 -0.13,0.97 -0.17,1.01 -0.19,1.02 -0.23,1.03 -0.27,1.05 -0.3,1.06 -0.35,1.07 -0.4,1.07 -0.21,0.53 -0.22,0.53 -0.24,0.53 -0.25,0.53 c -2.98,6.12 -7.27,9.36 -7.77,9.36 -0.29,0 -0.5,-0.19 -0.5,-0.49 0,-0.15 0,-0.25 0.94,-1.15 4.89,-4.92 7.73,-12.85 7.73,-23.27 0,-8.51 -1.84,-17.28 -8.03,-23.56 -0.64,-0.59 -0.64,-0.7 -0.64,-0.84 0,-0.3 0.21,-0.5 0.5,-0.5 0.5,0 4.97,3.39 7.92,9.71 2.54,5.47 3.13,11 3.13,15.19 z"
           inkscape:connector-curvature="0"
           style="fill:#000000;stroke-width:0" /></g>    </g>
    <g
       id="g6562"
       transform="matrix(0.135344,0,0,0.135344,454.9013,429.38086)">
      <g
         id="g6564"
         transform="matrix(1.0629921,0,0,-1.0629921,-186.02362,789.27165)"
         xml:space="preserve"
         stroke-miterlimit="10.433"
         font-style="normal"
         font-variant="normal"
         font-weight="normal"
         font-stretch="normal"
         font-size-adjust="none"
         letter-spacing="normal"
         word-spacing="normal"
         style="font-style:normal;font-variant:normal;font-weight:normal;font-stretch:normal;letter-spacing:normal;word-spacing:normal;text-anchor:start;fill:none;stroke:#000000;stroke-linecap:butt;stroke-linejoin:miter;stroke-miterlimit:10.43299961;stroke-opacity:1;stroke-dasharray:none;stroke-dashoffset:0"><path
           d="m 477.19,423.14 0.45,0.12 0.44,0.12 0.44,0.14 0.43,0.15 0.42,0.16 0.42,0.17 0.4,0.18 0.4,0.19 0.39,0.19 0.37,0.21 0.37,0.22 0.35,0.22 0.34,0.23 0.33,0.24 0.32,0.25 0.3,0.26 0.29,0.27 0.27,0.27 0.26,0.28 0.24,0.29 0.23,0.29 0.21,0.31 0.19,0.3 0.18,0.32 0.15,0.32 0.14,0.33 0.12,0.33 0.09,0.35 0.08,0.34 0.06,0.35 0.03,0.36 0.01,0.36 c 0,4.78 -5.67,8.97 -13,8.97 h -15.64 v -1.55 h 1.19 c 3.84,0 3.93,-0.54 3.93,-2.34 v -26.25 c 0,-1.8 -0.09,-2.34 -3.93,-2.34 h -1.19 v -1.55 c 1.78,0.16 5.33,0.16 7.27,0.16 1.93,0 5.48,0 7.28,-0.16 v 1.55 h -1.21 c -3.82,0 -3.93,0.54 -3.93,2.34 v 12.59 1.11 12.89 c 0,1.16 0,1.75 1.09,1.91 0.5,0.09 1.95,0.09 2.95,0.09 4.47,0 10.07,-0.2 10.07,-7.42 0,-3.44 -1.21,-7.47 -8.58,-7.47 h -5.53 v -1.11 h 5.73 c 0.8,0 2.89,0 4.63,-1.68 1.9,-1.8 1.9,-3.35 1.9,-6.68 0,-3.25 0,-5.23 2.03,-7.12 2.05,-1.8 4.78,-2.09 6.28,-2.09 3.89,0 4.74,4.07 4.74,5.48 0,0.3 0,0.84 -0.64,0.84 -0.55,0 -0.55,-0.45 -0.61,-0.79 -0.3,-3.55 -2.03,-4.44 -3.28,-4.44 -2.44,0 -2.85,2.55 -3.55,7.17 l -0.64,3.99 c -0.89,3.18 -3.34,4.84 -6.08,5.78 z"
           id="path6566"
           inkscape:connector-curvature="0"
           style="fill:#000000;stroke-width:0" /><path
           d="m 508.83,409.98 0.02,-0.19 0.03,-0.18 0.04,-0.19 0.04,-0.18 0.05,-0.19 0.06,-0.18 0.06,-0.18 0.07,-0.18 0.07,-0.18 0.08,-0.17 0.09,-0.18 0.09,-0.16 0.1,-0.16 0.11,-0.16 0.12,-0.16 0.11,-0.14 0.13,-0.14 0.13,-0.14 0.14,-0.13 0.15,-0.12 0.15,-0.12 0.15,-0.1 0.17,-0.1 0.16,-0.09 0.18,-0.08 0.18,-0.07 0.19,-0.06 0.19,-0.05 0.2,-0.04 0.21,-0.03 0.21,-0.02 0.21,-0.01 c 1.03,0 4.08,0.71 4.08,4.74 v 2.78 h -1.25 v -2.78 c 0,-2.89 -1.23,-3.19 -1.8,-3.19 -1.64,0 -1.84,2.23 -1.84,2.48 v 9.97 c 0,2.1 0,4.03 -1.78,5.88 -1.95,1.93 -4.44,2.73 -6.83,2.73 -4.09,0 -7.53,-2.33 -7.53,-5.62 0,-1.49 1,-2.35 2.3,-2.35 1.39,0 2.29,1 2.29,2.3 0,0.59 -0.25,2.23 -2.54,2.3 1.34,1.73 3.78,2.28 5.37,2.28 2.45,0 5.28,-1.94 5.28,-6.38 v -1.84 -1.05 -4.98 c 0,-4.74 -3.58,-6.42 -5.83,-6.42 -2.43,0 -4.48,1.75 -4.48,4.23 0,2.73 2.09,6.88 10.31,7.17 h 0 v 1.05 c -2.53,-0.14 -6.01,-0.3 -9.15,-1.8 -3.74,-1.69 -4.99,-4.28 -4.99,-6.47 0,-4.03 4.83,-5.28 7.97,-5.28 3.3,0 5.58,1.99 6.53,4.33 z"
           id="path6568"
           inkscape:connector-curvature="0"
           style="fill:#000000;stroke-width:0" /><path
           d="m 522.68,423.34 v -13.36 c 0,-2.23 -0.55,-2.23 -3.89,-2.23 v -1.55 c 1.75,0.05 4.28,0.16 5.62,0.16 1.3,0 3.89,-0.11 5.58,-0.16 v 1.55 c -3.33,0 -3.87,0 -3.87,2.23 v 9.17 c 0,5.19 3.53,7.97 6.72,7.97 3.14,0 3.68,-2.69 3.68,-5.53 v -11.61 c 0,-2.23 -0.54,-2.23 -3.89,-2.23 v -1.55 c 1.75,0.05 4.3,0.16 5.64,0.16 1.3,0 3.88,-0.11 5.58,-0.16 v 1.55 c -2.59,0 -3.84,0 -3.89,1.5 v 9.51 c 0,4.28 0,5.83 -1.55,7.61 -0.68,0.86 -2.34,1.84 -5.21,1.84 -3.65,0 -5.99,-2.14 -7.38,-5.21 v 5.21 l -7.03,-0.54 v -1.55 c 3.48,0 3.89,-0.34 3.89,-2.78 z"
           id="path6570"
           inkscape:connector-curvature="0"
           style="fill:#000000;stroke-width:0" /><path
           d="m 550.2,412.82 0,0.03 0,0.02 0,0.03 0,0.04 0,0.04 0,0.05 0,0.05 0.01,0.06 0,0.05 0.01,0.07 0.01,0.06 0.01,0.07 0.01,0.07 0.02,0.08 0.01,0.08 0.02,0.08 0.02,0.08 0.03,0.08 0.02,0.09 0.03,0.09 0.03,0.09 0.04,0.09 0.04,0.09 0.04,0.1 0.05,0.09 0.05,0.1 0.05,0.09 0.06,0.1 0.06,0.09 0.07,0.1 0.07,0.09 0.08,0.1 c 1.95,-1.39 3.98,-1.55 4.94,-1.55 v 1.14 c -4.35,0 -4.35,4.99 -4.35,6.14 0,1.35 0.07,2.94 0.8,4.17 0.41,0.61 1.55,2 3.55,2 4.32,0 4.32,-4.98 4.32,-6.12 0,-1.34 -0.04,-2.94 -0.79,-4.19 -0.39,-0.59 -1.55,-2 -3.53,-2 h 0 v -1.14 c 4.62,0 8.06,3.44 8.06,7.28 0,1.85 -0.8,3.69 -2.03,4.83 1.78,1.69 3.58,1.94 4.48,1.94 0.1,0 0.35,0 0.5,-0.05 -0.56,-0.2 -0.79,-0.75 -0.79,-1.34 0,-0.85 0.64,-1.44 1.43,-1.44 0.5,0 1.44,0.34 1.44,1.48 0,0.85 -0.59,2.44 -2.53,2.44 -1,0 -3.19,-0.3 -5.28,-2.33 -2.1,1.64 -4.19,1.78 -5.28,1.78 -4.64,0 -8.08,-3.43 -8.08,-7.26 0,-2.19 1.09,-4.09 2.34,-5.14 -0.64,-0.74 -1.54,-2.39 -1.54,-4.13 0,-1.54 0.65,-3.43 2.2,-4.43 -3,-0.85 -4.6,-2.99 -4.6,-4.99 0,-3.58 4.94,-6.33 11.02,-6.33 l 0.05,1.14 c -5.03,0 -8.47,2.55 -8.47,5.19 0,2.3 1.89,4.14 4.09,4.28 h 2.94 c 4.28,0 9.86,0 9.86,-4.28 0,-2.69 -3.53,-5.19 -8.42,-5.19 h 0 l -0.05,-1.14 c 5.88,0 11.06,2.55 11.06,6.43 0,1.75 -0.7,4.29 -3.23,5.68 -2.64,1.39 -5.53,1.39 -8.58,1.39 -1.25,0 -3.39,0 -3.73,0.05 -1.6,0.2 -2.64,1.75 -2.64,3.34 z"
           id="path6572"
           inkscape:connector-curvature="0"
           style="fill:#000000;stroke-width:0" /><path
           d="m 575.4,417.71 0.05,1.05 c 0.3,7.42 4.48,8.66 6.19,8.66 5.12,0 5.62,-6.72 5.62,-8.66 h -11.81 l -0.05,-1.05 h 13.91 c 1.09,0 1.23,0 1.23,1.05 0,4.92 -2.69,9.75 -8.9,9.75 -5.79,0 -10.38,-5.12 -10.38,-11.36 0,-6.67 5.24,-11.5 10.97,-11.5 6.08,0 8.31,5.53 8.31,6.47 0,0.5 -0.39,0.61 -0.64,0.61 -0.45,0 -0.55,-0.3 -0.65,-0.7 -1.74,-5.13 -6.22,-5.13 -6.72,-5.13 -2.5,0 -4.49,1.49 -5.63,3.33 -1.5,2.39 -1.5,5.69 -1.5,7.48 z"
           id="path6574"
           inkscape:connector-curvature="0"
           style="fill:#000000;stroke-width:0" /><path
           d="m 608.31,394.25 0,0.02 0,0.03 0,0.01 0,0.02 -0.01,0.01 0,0.02 -0.01,0.01 0,0.02 -0.01,0.02 -0.01,0.02 -0.01,0.02 -0.02,0.03 -0.01,0.02 -0.02,0.03 -0.02,0.03 -0.03,0.03 -0.02,0.03 -0.03,0.04 -0.02,0.02 -0.02,0.02 -0.01,0.02 -0.02,0.02 -0.02,0.02 -0.02,0.03 -0.02,0.02 -0.02,0.02 -0.03,0.03 -0.02,0.02 -0.02,0.03 -0.03,0.03 -0.03,0.03 -0.02,0.03 -0.03,0.03 -0.03,0.03 -0.03,0.03 -0.04,0.03 -0.03,0.04 -0.03,0.03 -0.04,0.04 -0.03,0.03 -0.04,0.04 -0.04,0.04 c -6.22,6.28 -7.81,15.69 -7.81,23.31 0,8.67 1.89,17.35 8.01,23.56 0.64,0.61 0.64,0.71 0.64,0.86 0,0.35 -0.18,0.49 -0.48,0.49 -0.5,0 -4.99,-3.38 -7.92,-9.7 -2.55,-5.49 -3.14,-11.02 -3.14,-15.21 0,-3.89 0.54,-9.9 3.28,-15.54 2.98,-6.13 7.28,-9.36 7.78,-9.36 0.3,0 0.48,0.14 0.48,0.5 z"
           id="path6576"
           inkscape:connector-curvature="0"
           style="fill:#000000;stroke-width:0" /><path
           d="m 620.11,410.84 0.25,0.39 0.24,0.38 0.22,0.38 0.22,0.37 0.2,0.37 0.2,0.36 0.19,0.35 0.18,0.35 0.17,0.35 0.16,0.34 0.16,0.33 0.15,0.33 0.14,0.33 0.13,0.32 0.25,0.62 0.22,0.61 0.21,0.6 0.18,0.57 0.17,0.56 0.15,0.54 0.14,0.53 0.14,0.52 0.12,0.5 c 1.73,6.87 3.64,12.86 6.72,16.3 0.61,0.65 1,1.09 2.59,1.09 3.44,0 3.54,-3.44 3.54,-4.12 0,-0.91 -0.25,-1.6 -0.25,-1.85 0,-0.36 0.31,-0.36 0.35,-0.36 0.8,0 2.15,0.55 3.4,1.46 0.88,0.68 1.34,1.18 1.34,3.23 0,2.69 -1.41,4.73 -4.19,4.73 -1.59,0 -5.98,-0.4 -10.86,-5.32 -3.98,-4.1 -6.33,-13.07 -7.28,-16.8 -0.89,-3.44 -1.3,-4.99 -2.78,-7.97 -0.36,-0.59 -1.66,-2.8 -2.35,-3.44 -1.34,-1.25 -1.84,-2.14 -1.84,-2.39 0,-0.09 0.09,-0.29 0.46,-0.29 0.18,0 1.23,0.2 2.53,1.04 0.84,0.5 0.95,0.6 2.09,1.8 2.5,-0.06 4.23,-0.5 7.38,-1.41 2.54,-0.68 5.07,-1.43 7.62,-1.43 4.03,0 8.13,3.03 9.72,5.23 0.98,1.34 1.29,2.58 1.29,2.73 0,0.35 -0.31,0.35 -0.35,0.35 -0.8,0 -1.99,-0.55 -2.85,-1.14 -1.34,-0.85 -1.43,-1.14 -1.73,-2 -0.25,-0.8 -0.55,-1.19 -0.75,-1.49 -0.39,-0.59 -0.45,-0.59 -1.2,-0.59 -2.4,0 -4.88,0.73 -8.16,1.64 -1.41,0.39 -4.14,1.19 -6.64,1.19 -0.64,0 -1.35,-0.05 -1.99,-0.19 z"
           id="path6578"
           inkscape:connector-curvature="0"
           style="fill:#000000;stroke-width:0" /><path
           d="m 663.98,408.03 -0.01,0.36 -0.02,0.34 -0.04,0.34 -0.06,0.33 -0.07,0.32 -0.09,0.31 -0.1,0.3 -0.11,0.28 -0.13,0.28 -0.14,0.27 -0.16,0.25 -0.16,0.25 -0.18,0.23 -0.19,0.22 -0.2,0.22 -0.21,0.2 -0.22,0.19 -0.23,0.17 -0.24,0.17 -0.25,0.15 -0.25,0.15 -0.27,0.13 -0.27,0.12 -0.28,0.1 -0.28,0.1 -0.29,0.08 -0.3,0.07 -0.3,0.06 -0.3,0.04 -0.31,0.04 -0.32,0.01 -0.32,0.01 c -5.17,0 -10.04,-4.84 -10.04,-9.61 0,-3.48 2.54,-6.09 6.34,-6.09 l 0.03,0.97 c -1.73,0 -3.48,1.12 -3.48,3.87 0,1.42 0.67,4.85 2.03,6.83 1.5,2.16 3.51,3.06 5.08,3.06 1.89,0 3.48,-1.29 3.48,-3.87 0,-0.83 -0.4,-4.28 -1.95,-6.72 -1.32,-2.05 -3.41,-3.17 -5.16,-3.17 h 0 l -0.03,-0.97 c 4.99,0 10,4.59 10,9.61 z"
           id="path6580"
           inkscape:connector-curvature="0"
           style="fill:#000000;stroke-width:0" /><path
           d="m 682.07,418.65 0,0.37 -0.01,0.39 -0.01,0.39 -0.01,0.41 -0.04,0.84 -0.06,0.88 -0.08,0.92 -0.11,0.95 -0.13,0.97 -0.17,1.01 -0.19,1.02 -0.23,1.03 -0.27,1.05 -0.3,1.06 -0.35,1.07 -0.4,1.07 -0.21,0.53 -0.22,0.53 -0.24,0.53 -0.25,0.53 c -2.99,6.12 -7.27,9.36 -7.77,9.36 -0.29,0 -0.5,-0.19 -0.5,-0.49 0,-0.15 0,-0.25 0.94,-1.15 4.89,-4.92 7.74,-12.85 7.74,-23.27 0,-8.51 -1.85,-17.28 -8.04,-23.56 -0.64,-0.59 -0.64,-0.7 -0.64,-0.84 0,-0.3 0.21,-0.5 0.5,-0.5 0.5,0 4.97,3.39 7.93,9.71 2.53,5.47 3.12,11 3.12,15.19 z"
           id="path6582"
           inkscape:connector-curvature="0"
           style="fill:#000000;stroke-width:0" /></g>    </g>
    <g
       id="g6908"
       transform="matrix(0.12396528,0,0,0.12396528,392.22373,476.01641)">
      <g
         word-spacing="normal"
         letter-spacing="normal"
         font-size-adjust="none"
         font-stretch="normal"
         font-weight="normal"
         font-variant="normal"
         font-style="normal"
         stroke-miterlimit="10.433"
         xml:space="preserve"
         transform="matrix(1.0629921,0,0,-1.0629921,-186.02362,789.27165)"
         id="g6910"
         style="font-style:normal;font-variant:normal;font-weight:normal;font-stretch:normal;letter-spacing:normal;word-spacing:normal;text-anchor:start;fill:none;stroke:#000000;stroke-linecap:butt;stroke-linejoin:miter;stroke-miterlimit:10.43299961;stroke-opacity:1;stroke-dasharray:none;stroke-dashoffset:0"><path
           id="path6912"
           d="m 467.08,439.57 -0.04,0.06 -0.04,0.05 -0.04,0.05 -0.03,0.05 -0.04,0.04 -0.03,0.04 -0.03,0.04 -0.03,0.03 -0.03,0.04 -0.03,0.03 -0.03,0.02 -0.04,0.03 -0.03,0.02 -0.03,0.02 -0.03,0.02 -0.04,0.02 -0.03,0.02 -0.04,0.01 -0.04,0.01 -0.04,0.01 -0.05,0.01 -0.04,0.01 -0.05,0.01 -0.06,0 -0.05,0.01 -0.06,0 -0.07,0 -0.06,0.01 -0.08,0 -0.03,0 -0.04,0 -0.04,0 -0.04,0 -0.05,0 -0.04,0 h -8.47 v -1.55 h 1.45 c 0.75,0 1.74,-0.04 2.49,-0.09 1.14,-0.16 1.2,-0.2 1.2,-1.16 v -26 c 0,-1.34 0,-3.68 -5.14,-3.68 v -1.55 c 1.75,0.05 4.19,0.16 5.83,0.16 1.65,0 4.09,-0.11 5.83,-0.16 v 1.55 c -5.13,0 -5.13,2.34 -5.13,3.68 v 25.91 c 0.25,-0.25 0.3,-0.3 0.5,-0.59 l 20.33,-29.91 c 0.44,-0.59 0.5,-0.64 0.84,-0.64 0.71,0 0.71,0.34 0.71,1.3 V 435 c 0,1.34 0,3.68 5.12,3.68 v 1.55 c -1.75,-0.05 -4.19,-0.16 -5.83,-0.16 -1.64,0 -4.09,0.11 -5.82,0.16 v -1.55 c 5.12,0 5.12,-2.34 5.12,-3.68 v -21.29 z"
           inkscape:connector-curvature="0"
           style="fill:#000000;stroke-width:0" /><path
           id="path6914"
           d="m 512.32,410.14 v -4.49 l 7.17,0.55 v 1.55 c -3.48,0 -3.89,0.34 -3.89,2.78 v 17.68 l -7.33,-0.54 v -1.55 c 3.5,0 3.89,-0.34 3.89,-2.78 v -8.88 c 0,-4.32 -2.39,-7.71 -6.03,-7.71 -4.17,0 -4.37,2.34 -4.37,4.93 v 16.53 l -7.33,-0.54 v -1.55 c 3.89,0 3.89,-0.14 3.89,-4.58 v -7.47 c 0,-3.89 0,-8.42 7.56,-8.42 2.8,0 4.99,1.39 6.44,4.49 z"
           inkscape:connector-curvature="0"
           style="fill:#000000;stroke-width:0" /><path
           id="path6916"
           d="m 529.37,440.78 -7.17,-0.55 v -1.55 c 3.48,0 3.89,-0.34 3.89,-2.79 v -25.91 c 0,-2.23 -0.55,-2.23 -3.89,-2.23 v -1.55 c 1.64,0.05 4.28,0.16 5.53,0.16 1.25,0 3.68,-0.11 5.53,-0.16 v 1.55 c -3.35,0 -3.89,0 -3.89,2.23 z"
           inkscape:connector-curvature="0"
           style="fill:#000000;stroke-width:0" /><path
           id="path6918"
           d="m 543.16,440.78 -7.17,-0.55 v -1.55 c 3.49,0 3.89,-0.34 3.89,-2.79 v -25.91 c 0,-2.23 -0.54,-2.23 -3.89,-2.23 v -1.55 c 1.64,0.05 4.28,0.16 5.53,0.16 1.25,0 3.69,-0.11 5.53,-0.16 v 1.55 c -3.34,0 -3.89,0 -3.89,2.23 z"
           inkscape:connector-curvature="0"
           style="fill:#000000;stroke-width:0" /><path
           id="path6920"
           d="m 564.75,394.25 0,0.02 0,0.03 0,0.01 0,0.02 0,0.01 -0.01,0.02 0,0.01 -0.01,0.02 -0.01,0.02 -0.01,0.02 -0.01,0.02 -0.02,0.03 -0.01,0.02 -0.02,0.03 -0.02,0.03 -0.03,0.03 -0.02,0.03 -0.03,0.04 -0.02,0.02 -0.01,0.02 -0.02,0.02 -0.02,0.02 -0.02,0.02 -0.02,0.03 -0.02,0.02 -0.02,0.02 -0.02,0.03 -0.03,0.02 -0.02,0.03 -0.03,0.03 -0.03,0.03 -0.02,0.03 -0.03,0.03 -0.03,0.03 -0.03,0.03 -0.03,0.03 -0.04,0.04 -0.03,0.03 -0.04,0.04 -0.03,0.03 -0.04,0.04 -0.04,0.04 c -6.22,6.28 -7.81,15.69 -7.81,23.31 0,8.67 1.89,17.35 8.01,23.56 0.64,0.61 0.64,0.71 0.64,0.86 0,0.35 -0.18,0.49 -0.48,0.49 -0.5,0 -4.99,-3.38 -7.92,-9.7 -2.55,-5.49 -3.14,-11.02 -3.14,-15.21 0,-3.89 0.54,-9.9 3.28,-15.54 2.98,-6.13 7.28,-9.36 7.78,-9.36 0.3,0 0.48,0.14 0.48,0.5 z"
           inkscape:connector-curvature="0"
           style="fill:#000000;stroke-width:0" /><path
           id="path6922"
           d="m 576.55,410.84 0.25,0.39 0.24,0.38 0.22,0.38 0.22,0.37 0.21,0.37 0.19,0.36 0.19,0.35 0.18,0.35 0.17,0.35 0.16,0.34 0.16,0.33 0.15,0.33 0.14,0.33 0.13,0.32 0.25,0.62 0.22,0.61 0.21,0.6 0.18,0.57 0.17,0.56 0.15,0.54 0.14,0.53 0.14,0.52 0.12,0.5 c 1.74,6.87 3.64,12.86 6.72,16.3 0.61,0.65 1,1.09 2.59,1.09 3.44,0 3.54,-3.44 3.54,-4.12 0,-0.91 -0.25,-1.6 -0.25,-1.85 0,-0.36 0.31,-0.36 0.36,-0.36 0.79,0 2.14,0.55 3.39,1.46 0.89,0.68 1.34,1.18 1.34,3.23 0,2.69 -1.41,4.73 -4.19,4.73 -1.59,0 -5.98,-0.4 -10.86,-5.32 -3.98,-4.1 -6.33,-13.07 -7.28,-16.8 -0.89,-3.44 -1.3,-4.99 -2.78,-7.97 -0.36,-0.59 -1.66,-2.8 -2.34,-3.44 -1.35,-1.25 -1.85,-2.14 -1.85,-2.39 0,-0.09 0.1,-0.29 0.46,-0.29 0.18,0 1.23,0.2 2.53,1.04 0.84,0.5 0.95,0.6 2.09,1.8 2.5,-0.06 4.24,-0.5 7.38,-1.41 2.54,-0.68 5.07,-1.43 7.62,-1.43 4.03,0 8.13,3.03 9.72,5.23 0.98,1.34 1.3,2.58 1.3,2.73 0,0.35 -0.32,0.35 -0.36,0.35 -0.8,0 -1.99,-0.55 -2.85,-1.14 -1.34,-0.85 -1.43,-1.14 -1.73,-2 -0.25,-0.8 -0.55,-1.19 -0.75,-1.49 -0.39,-0.59 -0.45,-0.59 -1.2,-0.59 -2.39,0 -4.88,0.73 -8.16,1.64 -1.41,0.39 -4.14,1.19 -6.64,1.19 -0.64,0 -1.34,-0.05 -1.99,-0.19 z"
           inkscape:connector-curvature="0"
           style="fill:#000000;stroke-width:0" /><path
           id="path6924"
           d="m 620.42,408.03 -0.01,0.36 -0.02,0.34 -0.04,0.34 -0.06,0.33 -0.07,0.32 -0.09,0.31 -0.1,0.3 -0.11,0.28 -0.13,0.28 -0.14,0.27 -0.16,0.25 -0.16,0.25 -0.18,0.23 -0.19,0.22 -0.2,0.22 -0.21,0.2 -0.22,0.19 -0.23,0.17 -0.24,0.17 -0.25,0.15 -0.25,0.15 -0.27,0.13 -0.27,0.12 -0.27,0.1 -0.29,0.1 -0.29,0.08 -0.3,0.07 -0.3,0.06 -0.3,0.04 -0.31,0.04 -0.32,0.01 -0.31,0.01 c -5.18,0 -10.05,-4.84 -10.05,-9.61 0,-3.48 2.55,-6.09 6.34,-6.09 l 0.03,0.97 c -1.73,0 -3.48,1.12 -3.48,3.87 0,1.42 0.67,4.85 2.03,6.83 1.5,2.16 3.52,3.06 5.08,3.06 1.89,0 3.48,-1.29 3.48,-3.87 0,-0.83 -0.4,-4.28 -1.95,-6.72 -1.31,-2.05 -3.41,-3.17 -5.16,-3.17 h 0 l -0.03,-0.97 c 4.99,0 10,4.59 10,9.61 z"
           inkscape:connector-curvature="0"
           style="fill:#000000;stroke-width:0" /><path
           id="path6926"
           d="m 638.51,418.65 0,0.37 0,0.39 -0.01,0.39 -0.02,0.41 -0.04,0.84 -0.06,0.88 -0.08,0.92 -0.11,0.95 -0.13,0.97 -0.16,1.01 -0.2,1.02 -0.23,1.03 -0.27,1.05 -0.3,1.06 -0.35,1.07 -0.39,1.07 -0.22,0.53 -0.22,0.53 -0.24,0.53 -0.25,0.53 c -2.98,6.12 -7.26,9.36 -7.76,9.36 -0.3,0 -0.5,-0.19 -0.5,-0.49 0,-0.15 0,-0.25 0.93,-1.15 4.89,-4.92 7.74,-12.85 7.74,-23.27 0,-8.51 -1.85,-17.28 -8.04,-23.56 -0.63,-0.59 -0.63,-0.7 -0.63,-0.84 0,-0.3 0.2,-0.5 0.5,-0.5 0.5,0 4.96,3.39 7.92,9.71 2.53,5.47 3.12,11 3.12,15.19 z"
           inkscape:connector-curvature="0"
           style="fill:#000000;stroke-width:0" /><path
           id="path6928"
           d="m 691.59,422.5 0.14,0 0.14,0 0.15,0 0.07,0.01 0.07,0 0.08,0.01 0.07,0.01 0.07,0.01 0.07,0.01 0.06,0.01 0.07,0.02 0.07,0.02 0.06,0.02 0.06,0.02 0.06,0.03 0.05,0.03 0.06,0.04 0.05,0.03 0.04,0.05 0.05,0.04 0.04,0.05 0.02,0.03 0.01,0.03 0.02,0.02 0.01,0.03 0.02,0.03 0.01,0.04 0.01,0.03 0.01,0.04 0.01,0.03 0.01,0.04 0.01,0.04 0.01,0.04 0,0.04 0,0.04 0.01,0.04 0,0.05 c 0,1 -0.96,1 -1.64,1 h -29.85 c -0.7,0 -1.64,0 -1.64,-1 0,-0.98 0.94,-0.98 1.69,-0.98 z"
           inkscape:connector-curvature="0"
           style="fill:#000000;stroke-width:0" /><path
           id="path6930"
           d="m 691.64,412.82 0.06,0 0.07,0 0.13,0.01 0.14,0 0.07,0 0.07,0.01 0.07,0.01 0.07,0 0.07,0.01 0.07,0.02 0.06,0.01 0.07,0.02 0.06,0.02 0.06,0.02 0.06,0.02 0.06,0.03 0.06,0.03 0.05,0.04 0.05,0.04 0.04,0.04 0.05,0.05 0.02,0.02 0.02,0.03 0.02,0.02 0.01,0.03 0.02,0.03 0.01,0.03 0.02,0.03 0.01,0.03 0.01,0.04 0.01,0.03 0.01,0.04 0.01,0.04 0.01,0.04 0.01,0.04 0,0.04 0,0.04 0.01,0.05 0,0.04 c 0,1 -0.96,1 -1.69,1 h -29.75 c -0.75,0 -1.69,0 -1.69,-1 0,-1 0.94,-1 1.64,-1 z"
           inkscape:connector-curvature="0"
           style="fill:#000000;stroke-width:0" /><path
           id="path6932"
           d="m 724.01,436.93 0,0.19 0.01,0.2 0.02,0.2 0.03,0.21 0.04,0.21 0.05,0.22 0.06,0.21 0.08,0.22 0.08,0.22 0.09,0.22 0.11,0.22 0.13,0.22 0.13,0.22 0.15,0.21 0.17,0.21 0.18,0.21 0.19,0.2 0.22,0.2 0.22,0.19 0.25,0.18 0.27,0.18 0.28,0.16 0.3,0.16 0.33,0.15 0.34,0.13 0.36,0.13 0.39,0.11 0.4,0.1 0.21,0.05 0.22,0.04 0.22,0.03 0.23,0.04 0.23,0.03 0.24,0.02 0.25,0.03 0.25,0.01 c 0.25,0.05 0.46,0.25 0.46,0.55 0,0.55 -0.41,0.55 -0.96,0.55 -4.98,0 -9.51,-2.53 -9.56,-6.22 v -11.36 c 0,-1.94 0,-3.55 -2,-5.19 -1.73,-1.43 -3.64,-1.54 -4.73,-1.59 -0.25,-0.05 -0.44,-0.25 -0.44,-0.55 0,-0.5 0.29,-0.5 0.79,-0.54 3.29,-0.21 5.68,-1.99 6.22,-4.44 0.16,-0.55 0.16,-0.64 0.16,-2.44 v -9.86 c 0,-2.09 0,-3.69 2.39,-5.58 1.94,-1.5 5.23,-2.04 7.17,-2.04 0.55,0 0.96,0 0.96,0.54 0,0.5 -0.32,0.5 -0.8,0.55 -3.14,0.2 -5.6,1.8 -6.24,4.33 -0.15,0.45 -0.15,0.54 -0.15,2.34 v 10.47 c 0,2.3 -0.39,3.14 -1.99,4.73 -1.04,1.05 -2.5,1.55 -3.89,1.94 4.1,1.14 5.88,3.44 5.88,6.33 z"
           inkscape:connector-curvature="0"
           style="fill:#000000;stroke-width:0" /><path
           id="path6934"
           d="m 757.79,422.14 0,0.74 -0.01,0.75 -0.02,0.75 -0.03,0.74 -0.05,0.75 -0.06,0.74 -0.08,0.74 -0.09,0.73 -0.12,0.73 -0.14,0.73 -0.16,0.72 -0.19,0.72 -0.21,0.72 -0.25,0.7 -0.28,0.7 -0.15,0.35 -0.16,0.34 c -2.28,4.8 -6.37,5.6 -8.47,5.6 -2.98,0 -6.62,-1.3 -8.67,-5.94 -1.59,-3.44 -1.84,-7.33 -1.84,-11.31 0,-3.74 0.2,-8.22 2.25,-12 2.14,-4.03 5.78,-5.03 8.22,-5.03 v 1.09 c -1.94,0 -4.89,1.25 -5.78,6.03 -0.55,2.98 -0.55,7.56 -0.55,10.52 0,3.18 0,6.46 0.4,9.15 0.94,5.94 4.68,6.38 5.93,6.38 1.64,0 4.94,-0.89 5.87,-5.83 0.5,-2.78 0.5,-6.58 0.5,-9.7 0,-3.75 0,-7.13 -0.55,-10.32 -0.75,-4.73 -3.59,-6.23 -5.82,-6.23 h 0 v -1.09 c 2.69,0 6.47,1.04 8.67,5.78 1.59,3.43 1.84,7.31 1.84,11.25 z"
           inkscape:connector-curvature="0"
           style="fill:#000000;stroke-width:0" /><path
           id="path6936"
           d="m 770.59,400.37 0,-0.19 -0.01,-0.2 -0.02,-0.2 -0.03,-0.21 -0.04,-0.21 -0.05,-0.21 -0.06,-0.22 -0.07,-0.22 -0.09,-0.22 -0.09,-0.22 -0.11,-0.22 -0.12,-0.22 -0.14,-0.21 -0.15,-0.22 -0.16,-0.21 -0.18,-0.21 -0.2,-0.2 -0.21,-0.19 -0.23,-0.19 -0.25,-0.19 -0.27,-0.17 -0.28,-0.17 -0.3,-0.15 -0.32,-0.15 -0.35,-0.14 -0.36,-0.12 -0.38,-0.12 -0.41,-0.1 -0.21,-0.04 -0.22,-0.04 -0.22,-0.04 -0.23,-0.03 -0.23,-0.03 -0.24,-0.03 -0.25,-0.02 -0.25,-0.02 c -0.25,-0.05 -0.44,-0.25 -0.44,-0.55 0,-0.54 0.55,-0.54 0.99,-0.54 4.84,0 9.47,2.43 9.51,6.21 v 11.36 c 0,1.96 0,3.55 2,5.19 1.75,1.45 3.64,1.55 4.74,1.6 0.25,0.04 0.45,0.25 0.45,0.54 0,0.5 -0.31,0.5 -0.8,0.55 -3.29,0.2 -5.68,2 -6.23,4.44 -0.16,0.54 -0.16,0.64 -0.16,2.43 v 9.88 c 0,2.08 0,3.69 -2.39,5.58 -1.98,1.54 -5.42,2.03 -7.12,2.03 -0.44,0 -0.99,0 -0.99,-0.55 0,-0.5 0.3,-0.5 0.8,-0.55 3.12,-0.18 5.58,-1.79 6.22,-4.32 0.15,-0.46 0.15,-0.55 0.15,-2.35 v -10.47 c 0,-2.28 0.39,-3.12 1.99,-4.73 1.05,-1.03 2.5,-1.53 3.89,-1.94 -4.08,-1.14 -5.88,-3.44 -5.88,-6.33 z"
           inkscape:connector-curvature="0"
           style="fill:#000000;stroke-width:0" /></g>    </g>
    <g
       id="g7292"
       transform="matrix(0.1463174,0,0,0.1463174,486.70005,477.80591)">
      <g
         id="g7294"
         transform="matrix(1.0629921,0,0,-1.0629921,-186.02362,789.27165)"
         xml:space="preserve"
         stroke-miterlimit="10.433"
         font-style="normal"
         font-variant="normal"
         font-weight="normal"
         font-stretch="normal"
         font-size-adjust="none"
         letter-spacing="normal"
         word-spacing="normal"
         style="font-style:normal;font-variant:normal;font-weight:normal;font-stretch:normal;letter-spacing:normal;word-spacing:normal;text-anchor:start;fill:none;stroke:#000000;stroke-linecap:butt;stroke-linejoin:miter;stroke-miterlimit:10.43299961;stroke-opacity:1;stroke-dasharray:none;stroke-dashoffset:0"><path
           d="m 467.08,439.57 -0.04,0.06 -0.04,0.05 -0.04,0.05 -0.03,0.05 -0.04,0.04 -0.03,0.04 -0.03,0.04 -0.03,0.03 -0.03,0.04 -0.03,0.03 -0.03,0.02 -0.04,0.03 -0.03,0.02 -0.03,0.02 -0.03,0.02 -0.04,0.02 -0.03,0.02 -0.04,0.01 -0.04,0.01 -0.04,0.01 -0.05,0.01 -0.04,0.01 -0.05,0.01 -0.06,0 -0.05,0.01 -0.06,0 -0.07,0 -0.06,0.01 -0.08,0 -0.03,0 -0.04,0 -0.04,0 -0.04,0 -0.05,0 -0.04,0 h -8.47 v -1.55 h 1.45 c 0.75,0 1.74,-0.04 2.49,-0.09 1.14,-0.16 1.2,-0.2 1.2,-1.16 v -26 c 0,-1.34 0,-3.68 -5.14,-3.68 v -1.55 c 1.75,0.05 4.19,0.16 5.83,0.16 1.65,0 4.09,-0.11 5.83,-0.16 v 1.55 c -5.13,0 -5.13,2.34 -5.13,3.68 v 25.91 c 0.25,-0.25 0.3,-0.3 0.5,-0.59 l 20.33,-29.91 c 0.44,-0.59 0.5,-0.64 0.84,-0.64 0.71,0 0.71,0.34 0.71,1.3 V 435 c 0,1.34 0,3.68 5.12,3.68 v 1.55 c -1.75,-0.05 -4.19,-0.16 -5.83,-0.16 -1.64,0 -4.09,0.11 -5.82,0.16 v -1.55 c 5.12,0 5.12,-2.34 5.12,-3.68 v -21.29 z"
           id="path7296"
           inkscape:connector-curvature="0"
           style="fill:#000000;stroke-width:0" /><path
           d="m 512.32,410.14 v -4.49 l 7.17,0.55 v 1.55 c -3.48,0 -3.89,0.34 -3.89,2.78 v 17.68 l -7.33,-0.54 v -1.55 c 3.5,0 3.89,-0.34 3.89,-2.78 v -8.88 c 0,-4.32 -2.39,-7.71 -6.03,-7.71 -4.17,0 -4.37,2.34 -4.37,4.93 v 16.53 l -7.33,-0.54 v -1.55 c 3.89,0 3.89,-0.14 3.89,-4.58 v -7.47 c 0,-3.89 0,-8.42 7.56,-8.42 2.8,0 4.99,1.39 6.44,4.49 z"
           id="path7298"
           inkscape:connector-curvature="0"
           style="fill:#000000;stroke-width:0" /><path
           d="m 529.37,440.78 -7.17,-0.55 v -1.55 c 3.48,0 3.89,-0.34 3.89,-2.79 v -25.91 c 0,-2.23 -0.55,-2.23 -3.89,-2.23 v -1.55 c 1.64,0.05 4.28,0.16 5.53,0.16 1.25,0 3.68,-0.11 5.53,-0.16 v 1.55 c -3.35,0 -3.89,0 -3.89,2.23 z"
           id="path7300"
           inkscape:connector-curvature="0"
           style="fill:#000000;stroke-width:0" /><path
           d="m 543.16,440.78 -7.17,-0.55 v -1.55 c 3.49,0 3.89,-0.34 3.89,-2.79 v -25.91 c 0,-2.23 -0.54,-2.23 -3.89,-2.23 v -1.55 c 1.64,0.05 4.28,0.16 5.53,0.16 1.25,0 3.69,-0.11 5.53,-0.16 v 1.55 c -3.34,0 -3.89,0 -3.89,2.23 z"
           id="path7302"
           inkscape:connector-curvature="0"
           style="fill:#000000;stroke-width:0" /><path
           d="m 564.75,394.25 0,0.02 0,0.03 0,0.01 0,0.02 0,0.01 -0.01,0.02 0,0.01 -0.01,0.02 -0.01,0.02 -0.01,0.02 -0.01,0.02 -0.02,0.03 -0.01,0.02 -0.02,0.03 -0.02,0.03 -0.03,0.03 -0.02,0.03 -0.03,0.04 -0.02,0.02 -0.01,0.02 -0.02,0.02 -0.02,0.02 -0.02,0.02 -0.02,0.03 -0.02,0.02 -0.02,0.02 -0.02,0.03 -0.03,0.02 -0.02,0.03 -0.03,0.03 -0.03,0.03 -0.02,0.03 -0.03,0.03 -0.03,0.03 -0.03,0.03 -0.03,0.03 -0.04,0.04 -0.03,0.03 -0.04,0.04 -0.03,0.03 -0.04,0.04 -0.04,0.04 c -6.22,6.28 -7.81,15.69 -7.81,23.31 0,8.67 1.89,17.35 8.01,23.56 0.64,0.61 0.64,0.71 0.64,0.86 0,0.35 -0.18,0.49 -0.48,0.49 -0.5,0 -4.99,-3.38 -7.92,-9.7 -2.55,-5.49 -3.14,-11.02 -3.14,-15.21 0,-3.89 0.54,-9.9 3.28,-15.54 2.98,-6.13 7.28,-9.36 7.78,-9.36 0.3,0 0.48,0.14 0.48,0.5 z"
           id="path7304"
           inkscape:connector-curvature="0"
           style="fill:#000000;stroke-width:0" /><path
           d="m 576.55,410.84 0.25,0.39 0.24,0.38 0.22,0.38 0.22,0.37 0.21,0.37 0.19,0.36 0.19,0.35 0.18,0.35 0.17,0.35 0.16,0.34 0.16,0.33 0.15,0.33 0.14,0.33 0.13,0.32 0.25,0.62 0.22,0.61 0.21,0.6 0.18,0.57 0.17,0.56 0.15,0.54 0.14,0.53 0.14,0.52 0.12,0.5 c 1.74,6.87 3.64,12.86 6.72,16.3 0.61,0.65 1,1.09 2.59,1.09 3.44,0 3.54,-3.44 3.54,-4.12 0,-0.91 -0.25,-1.6 -0.25,-1.85 0,-0.36 0.31,-0.36 0.36,-0.36 0.79,0 2.14,0.55 3.39,1.46 0.89,0.68 1.34,1.18 1.34,3.23 0,2.69 -1.41,4.73 -4.19,4.73 -1.59,0 -5.98,-0.4 -10.86,-5.32 -3.98,-4.1 -6.33,-13.07 -7.28,-16.8 -0.89,-3.44 -1.3,-4.99 -2.78,-7.97 -0.36,-0.59 -1.66,-2.8 -2.34,-3.44 -1.35,-1.25 -1.85,-2.14 -1.85,-2.39 0,-0.09 0.1,-0.29 0.46,-0.29 0.18,0 1.23,0.2 2.53,1.04 0.84,0.5 0.95,0.6 2.09,1.8 2.5,-0.06 4.24,-0.5 7.38,-1.41 2.54,-0.68 5.07,-1.43 7.62,-1.43 4.03,0 8.13,3.03 9.72,5.23 0.98,1.34 1.3,2.58 1.3,2.73 0,0.35 -0.32,0.35 -0.36,0.35 -0.8,0 -1.99,-0.55 -2.85,-1.14 -1.34,-0.85 -1.43,-1.14 -1.73,-2 -0.25,-0.8 -0.55,-1.19 -0.75,-1.49 -0.39,-0.59 -0.45,-0.59 -1.2,-0.59 -2.39,0 -4.88,0.73 -8.16,1.64 -1.41,0.39 -4.14,1.19 -6.64,1.19 -0.64,0 -1.34,-0.05 -1.99,-0.19 z"
           id="path7306"
           inkscape:connector-curvature="0"
           style="fill:#000000;stroke-width:0" /><path
           d="m 613.17,432.87 0.27,0.12 0.25,0.11 0.25,0.11 0.23,0.1 0.23,0.1 0.22,0.1 0.22,0.09 0.2,0.09 0.2,0.08 0.19,0.08 0.18,0.08 0.18,0.07 0.17,0.08 0.16,0.06 0.16,0.07 0.15,0.06 0.14,0.06 0.14,0.06 0.14,0.06 0.13,0.05 0.12,0.06 0.12,0.05 0.11,0.05 0.11,0.04 0.11,0.05 0.1,0.04 0.19,0.09 0.18,0.08 0.17,0.08 c 0.67,0.27 0.98,0.41 0.98,1.08 0,0.59 -0.45,1.11 -1.08,1.11 -0.25,0 -0.31,0 -0.73,-0.31 l -4.73,-3.17 0.51,5.15 c 0.08,0.63 0,1.5 -1.05,1.5 -0.42,0 -1.07,-0.28 -1.07,-1.04 0,-0.32 0.14,-1.36 0.17,-1.71 0.08,-0.59 0.31,-3.11 0.39,-3.9 l -4.7,3.17 c -0.36,0.2 -0.46,0.31 -0.77,0.31 -0.64,0 -1.09,-0.52 -1.09,-1.11 0,-0.7 0.42,-0.87 0.73,-1.01 l 5.27,-2.19 c -2.86,-1.27 -4.14,-1.75 -5.02,-2.17 -0.66,-0.29 -0.98,-0.43 -0.98,-1.08 0,-0.6 0.45,-1.11 1.09,-1.11 0.23,0 0.31,0 0.72,0.31 l 4.75,3.17 -0.56,-5.61 c 0,-0.76 0.65,-1.04 1.07,-1.04 0.43,0 1.08,0.28 1.08,1.04 0,0.32 -0.14,1.36 -0.17,1.71 -0.06,0.59 -0.31,3.09 -0.37,3.9 l 4.17,-2.79 c 0.9,-0.69 0.98,-0.69 1.29,-0.69 0.63,0 1.08,0.51 1.08,1.11 0,0.7 -0.42,0.87 -0.73,1.01 z"
           id="path7308"
           inkscape:connector-curvature="0"
           style="fill:#000000;stroke-width:0" /><path
           d="m 620.42,403.11 -0.01,0.35 -0.02,0.35 -0.04,0.34 -0.06,0.33 -0.07,0.32 -0.09,0.31 -0.1,0.29 -0.11,0.29 -0.13,0.28 -0.14,0.27 -0.16,0.25 -0.16,0.25 -0.18,0.23 -0.19,0.22 -0.2,0.21 -0.21,0.21 -0.22,0.18 -0.23,0.18 -0.24,0.17 -0.25,0.15 -0.25,0.15 -0.27,0.13 -0.27,0.11 -0.27,0.11 -0.29,0.1 -0.29,0.08 -0.3,0.07 -0.3,0.06 -0.3,0.04 -0.31,0.03 -0.32,0.02 -0.31,0.01 c -5.18,0 -10.05,-4.84 -10.05,-9.61 0,-3.48 2.55,-6.09 6.34,-6.09 l 0.03,0.96 c -1.73,0 -3.48,1.13 -3.48,3.88 0,1.42 0.67,4.84 2.03,6.83 1.5,2.15 3.52,3.06 5.08,3.06 1.89,0 3.48,-1.3 3.48,-3.87 0,-0.83 -0.4,-4.29 -1.95,-6.72 -1.31,-2.05 -3.41,-3.18 -5.16,-3.18 h 0 l -0.03,-0.96 c 4.99,0 10,4.59 10,9.61 z"
           id="path7310"
           inkscape:connector-curvature="0"
           style="fill:#000000;stroke-width:0" /><path
           d="m 639.23,418.65 0,0.37 -0.01,0.39 -0.01,0.39 -0.01,0.41 -0.04,0.84 -0.06,0.88 -0.08,0.92 -0.11,0.95 -0.13,0.97 -0.16,1.01 -0.2,1.02 -0.23,1.03 -0.27,1.05 -0.3,1.06 -0.35,1.07 -0.39,1.07 -0.22,0.53 -0.22,0.53 -0.24,0.53 -0.25,0.53 c -2.98,6.12 -7.27,9.36 -7.77,9.36 -0.29,0 -0.5,-0.19 -0.5,-0.49 0,-0.15 0,-0.25 0.94,-1.15 4.89,-4.92 7.73,-12.85 7.73,-23.27 0,-8.51 -1.84,-17.28 -8.03,-23.56 -0.64,-0.59 -0.64,-0.7 -0.64,-0.84 0,-0.3 0.21,-0.5 0.5,-0.5 0.5,0 4.97,3.39 7.92,9.71 2.54,5.47 3.13,11 3.13,15.19 z"
           id="path7312"
           inkscape:connector-curvature="0"
           style="fill:#000000;stroke-width:0" /></g>    </g>
    <g
       id="g7690"
       transform="matrix(0,0.17326063,-0.17326063,0,475.9093,423.96941)">
      <g
         word-spacing="normal"
         letter-spacing="normal"
         font-size-adjust="none"
         font-stretch="normal"
         font-weight="normal"
         font-variant="normal"
         font-style="normal"
         stroke-miterlimit="10.433"
         xml:space="preserve"
         transform="matrix(1.0629921,0,0,-1.0629921,-186.02362,789.27165)"
         id="g7692"
         style="font-style:normal;font-variant:normal;font-weight:normal;font-stretch:normal;letter-spacing:normal;word-spacing:normal;text-anchor:start;fill:none;stroke:#000000;stroke-linecap:butt;stroke-linejoin:miter;stroke-miterlimit:10.43299961;stroke-opacity:1;stroke-dasharray:none;stroke-dashoffset:0"><path
           id="path7694"
           d="m 464.49,410.84 0.24,0.39 0.24,0.38 0.23,0.38 0.21,0.37 0.21,0.37 0.2,0.36 0.18,0.35 0.18,0.35 0.18,0.35 0.16,0.34 0.15,0.33 0.15,0.33 0.14,0.33 0.14,0.32 0.24,0.62 0.23,0.61 0.2,0.6 0.19,0.57 0.16,0.56 0.16,0.54 0.14,0.53 0.13,0.52 0.13,0.5 c 1.73,6.87 3.64,12.86 6.71,16.3 0.61,0.65 1,1.09 2.6,1.09 3.44,0 3.53,-3.44 3.53,-4.12 0,-0.91 -0.25,-1.6 -0.25,-1.85 0,-0.36 0.31,-0.36 0.36,-0.36 0.8,0 2.14,0.55 3.39,1.46 0.89,0.68 1.34,1.18 1.34,3.23 0,2.69 -1.4,4.73 -4.18,4.73 -1.6,0 -5.99,-0.4 -10.86,-5.32 -3.99,-4.1 -6.33,-13.07 -7.28,-16.8 -0.9,-3.44 -1.3,-4.99 -2.79,-7.97 -0.36,-0.59 -1.65,-2.8 -2.34,-3.44 -1.34,-1.25 -1.84,-2.14 -1.84,-2.39 0,-0.09 0.09,-0.29 0.45,-0.29 0.19,0 1.23,0.2 2.53,1.04 0.84,0.5 0.95,0.6 2.09,1.8 2.5,-0.06 4.24,-0.5 7.38,-1.41 2.55,-0.68 5.08,-1.43 7.62,-1.43 4.04,0 8.13,3.03 9.72,5.23 0.99,1.34 1.3,2.58 1.3,2.73 0,0.35 -0.31,0.35 -0.36,0.35 -0.8,0 -1.98,-0.55 -2.84,-1.14 -1.35,-0.85 -1.44,-1.14 -1.74,-2 -0.25,-0.8 -0.54,-1.19 -0.75,-1.49 -0.39,-0.59 -0.45,-0.59 -1.2,-0.59 -2.39,0 -4.88,0.73 -8.16,1.64 -1.4,0.39 -4.14,1.19 -6.64,1.19 -0.64,0 -1.34,-0.05 -1.98,-0.19 z"
           inkscape:connector-curvature="0"
           style="fill:#000000;stroke-width:0" /><path
           id="path7696"
           d="m 501.09,432.87 0.26,0.12 0.26,0.11 0.24,0.11 0.24,0.1 0.23,0.1 0.22,0.1 0.21,0.09 0.21,0.09 0.2,0.08 0.19,0.08 0.18,0.08 0.18,0.07 0.17,0.08 0.16,0.06 0.16,0.07 0.15,0.06 0.14,0.06 0.14,0.06 0.14,0.06 0.12,0.05 0.13,0.06 0.12,0.05 0.11,0.05 0.11,0.04 0.11,0.05 0.1,0.04 0.19,0.09 0.18,0.08 0.17,0.08 c 0.67,0.27 0.98,0.41 0.98,1.08 0,0.59 -0.45,1.11 -1.08,1.11 -0.25,0 -0.31,0 -0.73,-0.31 l -4.74,-3.17 0.52,5.15 c 0.08,0.63 0,1.5 -1.05,1.5 -0.42,0 -1.08,-0.28 -1.08,-1.04 0,-0.32 0.14,-1.36 0.18,-1.71 0.07,-0.59 0.31,-3.11 0.39,-3.9 l -4.71,3.17 c -0.36,0.2 -0.45,0.31 -0.76,0.31 -0.64,0 -1.1,-0.52 -1.1,-1.11 0,-0.7 0.43,-0.87 0.74,-1.01 l 5.26,-2.19 c -2.86,-1.27 -4.14,-1.75 -5.01,-2.17 -0.66,-0.29 -0.99,-0.43 -0.99,-1.08 0,-0.6 0.46,-1.11 1.1,-1.11 0.23,0 0.31,0 0.72,0.31 l 4.75,3.17 -0.57,-5.61 c 0,-0.76 0.66,-1.04 1.08,-1.04 0.42,0 1.08,0.28 1.08,1.04 0,0.32 -0.14,1.36 -0.17,1.71 -0.06,0.59 -0.31,3.09 -0.38,3.9 l 4.17,-2.79 c 0.91,-0.69 0.99,-0.69 1.3,-0.69 0.63,0 1.08,0.51 1.08,1.11 0,0.7 -0.42,0.87 -0.73,1.01 z"
           inkscape:connector-curvature="0"
           style="fill:#000000;stroke-width:0" /><path
           id="path7698"
           d="m 508.34,403.11 -0.01,0.35 -0.02,0.35 -0.04,0.34 -0.06,0.33 -0.07,0.32 -0.09,0.31 -0.1,0.29 -0.11,0.29 -0.13,0.28 -0.14,0.27 -0.16,0.25 -0.16,0.25 -0.18,0.23 -0.19,0.22 -0.2,0.21 -0.21,0.21 -0.22,0.18 -0.23,0.18 -0.24,0.17 -0.25,0.15 -0.25,0.15 -0.27,0.13 -0.27,0.11 -0.28,0.11 -0.28,0.1 -0.29,0.08 -0.3,0.07 -0.3,0.06 -0.3,0.04 -0.31,0.03 -0.32,0.02 -0.32,0.01 c -5.17,0 -10.04,-4.84 -10.04,-9.61 0,-3.48 2.54,-6.09 6.34,-6.09 l 0.03,0.96 c -1.73,0 -3.48,1.13 -3.48,3.88 0,1.42 0.67,4.84 2.03,6.83 1.5,2.15 3.51,3.06 5.08,3.06 1.89,0 3.48,-1.3 3.48,-3.87 0,-0.83 -0.41,-4.29 -1.95,-6.72 -1.32,-2.05 -3.41,-3.18 -5.16,-3.18 h 0 l -0.03,-0.96 c 4.98,0 10,4.59 10,9.61 z"
           inkscape:connector-curvature="0"
           style="fill:#000000;stroke-width:0" /><path
           id="path7700"
           d="m 546.05,418.65 -0.02,0.5 -0.03,0.49 -0.07,0.48 -0.08,0.48 -0.11,0.46 -0.14,0.46 -0.15,0.45 -0.18,0.44 -0.2,0.43 -0.21,0.42 -0.24,0.4 -0.25,0.39 -0.28,0.38 -0.29,0.37 -0.3,0.35 -0.33,0.34 -0.33,0.32 -0.36,0.3 -0.36,0.29 -0.38,0.27 -0.4,0.25 -0.4,0.23 -0.42,0.22 -0.43,0.19 -0.43,0.18 -0.45,0.15 -0.45,0.13 -0.47,0.11 -0.47,0.08 -0.47,0.06 -0.49,0.04 -0.48,0.01 c -5.38,0 -9.72,-4.43 -9.72,-9.67 0,-5.28 4.34,-9.65 9.72,-9.65 v 1.98 c -4.33,0 -7.72,3.48 -7.72,7.67 0,4.19 3.43,7.67 7.72,7.67 4.14,0 7.67,-3.39 7.67,-7.67 0,-4.28 -3.53,-7.67 -7.67,-7.67 h 0 V 409 c 5.23,0 9.67,4.32 9.67,9.65 z"
           inkscape:connector-curvature="0"
           style="fill:#000000;stroke-width:0" /><path
           id="path7702"
           d="m 568.89,410.84 0.24,0.39 0.24,0.38 0.23,0.38 0.21,0.37 0.21,0.37 0.19,0.36 0.19,0.35 0.18,0.35 0.17,0.35 0.17,0.34 0.15,0.33 0.15,0.33 0.14,0.33 0.13,0.32 0.25,0.62 0.23,0.61 0.2,0.6 0.18,0.57 0.17,0.56 0.15,0.54 0.15,0.53 0.13,0.52 0.12,0.5 c 1.74,6.87 3.65,12.86 6.72,16.3 0.61,0.65 1,1.09 2.6,1.09 3.43,0 3.53,-3.44 3.53,-4.12 0,-0.91 -0.25,-1.6 -0.25,-1.85 0,-0.36 0.31,-0.36 0.36,-0.36 0.79,0 2.14,0.55 3.39,1.46 0.89,0.68 1.34,1.18 1.34,3.23 0,2.69 -1.41,4.73 -4.19,4.73 -1.59,0 -5.98,-0.4 -10.85,-5.32 -3.99,-4.1 -6.33,-13.07 -7.29,-16.8 -0.89,-3.44 -1.29,-4.99 -2.78,-7.97 -0.36,-0.59 -1.65,-2.8 -2.34,-3.44 -1.34,-1.25 -1.84,-2.14 -1.84,-2.39 0,-0.09 0.09,-0.29 0.45,-0.29 0.18,0 1.23,0.2 2.53,1.04 0.84,0.5 0.95,0.6 2.09,1.8 2.5,-0.06 4.24,-0.5 7.38,-1.41 2.55,-0.68 5.08,-1.43 7.62,-1.43 4.03,0 8.13,3.03 9.72,5.23 0.99,1.34 1.3,2.58 1.3,2.73 0,0.35 -0.31,0.35 -0.36,0.35 -0.8,0 -1.98,-0.55 -2.85,-1.14 -1.34,-0.85 -1.43,-1.14 -1.73,-2 -0.25,-0.8 -0.55,-1.19 -0.75,-1.49 -0.39,-0.59 -0.45,-0.59 -1.2,-0.59 -2.39,0 -4.88,0.73 -8.16,1.64 -1.41,0.39 -4.14,1.19 -6.64,1.19 -0.64,0 -1.34,-0.05 -1.98,-0.19 z"
           inkscape:connector-curvature="0"
           style="fill:#000000;stroke-width:0" /><path
           id="path7704"
           d="m 612.74,408.03 -0.01,0.36 -0.03,0.34 -0.04,0.34 -0.05,0.33 -0.07,0.32 -0.09,0.31 -0.1,0.3 -0.12,0.28 -0.13,0.28 -0.14,0.27 -0.15,0.25 -0.17,0.25 -0.17,0.23 -0.19,0.22 -0.2,0.22 -0.21,0.2 -0.22,0.19 -0.23,0.17 -0.24,0.17 -0.25,0.15 -0.26,0.15 -0.26,0.13 -0.27,0.12 -0.28,0.1 -0.28,0.1 -0.29,0.08 -0.3,0.07 -0.3,0.06 -0.31,0.04 -0.31,0.04 -0.31,0.01 -0.32,0.01 c -5.17,0 -10.04,-4.84 -10.04,-9.61 0,-3.48 2.54,-6.09 6.34,-6.09 l 0.03,0.97 c -1.74,0 -3.49,1.12 -3.49,3.87 0,1.42 0.68,4.85 2.04,6.83 1.5,2.16 3.51,3.06 5.08,3.06 1.88,0 3.48,-1.29 3.48,-3.87 0,-0.83 -0.41,-4.28 -1.95,-6.72 -1.32,-2.05 -3.41,-3.17 -5.16,-3.17 h 0 l -0.03,-0.97 c 4.98,0 10,4.59 10,9.61 z"
           inkscape:connector-curvature="0"
           style="fill:#000000;stroke-width:0" /></g>    </g>
    <g
       id="g8098"
       transform="matrix(0.19497396,0,0,0.19497396,380.29563,435.13234)">
      <g
         id="g8100"
         transform="matrix(1.0629921,0,0,-1.0629921,-186.02362,789.27165)"
         xml:space="preserve"
         stroke-miterlimit="10.433"
         font-style="normal"
         font-variant="normal"
         font-weight="normal"
         font-stretch="normal"
         font-size-adjust="none"
         letter-spacing="normal"
         word-spacing="normal"
         style="font-style:normal;font-variant:normal;font-weight:normal;font-stretch:normal;letter-spacing:normal;word-spacing:normal;text-anchor:start;fill:none;stroke:#000000;stroke-linecap:butt;stroke-linejoin:miter;stroke-miterlimit:10.43299961;stroke-opacity:1;stroke-dasharray:none;stroke-dashoffset:0"><path
           d="m 472.16,421.25 0.03,0.13 0.04,0.15 0.04,0.16 0.04,0.18 0.06,0.19 0.06,0.21 0.06,0.22 0.07,0.22 0.08,0.23 0.09,0.24 0.1,0.25 0.1,0.24 0.11,0.25 0.12,0.25 0.13,0.25 0.14,0.25 0.15,0.24 0.15,0.24 0.17,0.23 0.18,0.22 0.18,0.22 0.2,0.2 0.21,0.19 0.22,0.18 0.23,0.16 0.25,0.14 0.12,0.07 0.13,0.06 0.14,0.05 0.13,0.05 0.14,0.05 0.14,0.04 0.15,0.03 0.15,0.03 0.15,0.02 0.16,0.02 0.16,0.01 0.16,0 c 0.25,0 1.44,0 2.48,-0.64 -1.39,-0.25 -2.39,-1.5 -2.39,-2.69 0,-0.79 0.55,-1.75 1.89,-1.75 1.1,0 2.69,0.89 2.69,2.89 0,2.6 -2.94,3.28 -4.63,3.28 -2.89,0 -4.64,-2.64 -5.23,-3.78 -1.25,3.28 -3.94,3.78 -5.37,3.78 -5.19,0 -8.04,-6.42 -8.04,-7.67 0,-0.5 0.5,-0.5 0.61,-0.5 0.39,0 0.55,0.11 0.64,0.55 1.69,5.28 4.99,6.53 6.68,6.53 0.95,0 2.68,-0.44 2.68,-3.33 0,-1.54 -0.84,-4.89 -2.68,-11.86 -0.8,-3.09 -2.54,-5.18 -4.74,-5.18 -0.3,0 -1.44,0 -2.48,0.65 1.25,0.24 2.34,1.28 2.34,2.69 0,1.34 -1.09,1.73 -1.84,1.73 -1.5,0 -2.75,-1.29 -2.75,-2.89 0,-2.28 2.5,-3.28 4.68,-3.28 3.3,0 5.08,3.49 5.24,3.78 0.59,-1.84 2.39,-3.78 5.37,-3.78 5.14,0 7.99,6.42 7.99,7.67 0,0.5 -0.45,0.5 -0.61,0.5 -0.44,0 -0.55,-0.2 -0.64,-0.54 -1.64,-5.33 -5.03,-6.53 -6.63,-6.53 -1.95,0 -2.75,1.59 -2.75,3.29 0,1.1 0.3,2.19 0.86,4.38 z"
           id="path8102"
           inkscape:connector-curvature="0"
           style="fill:#000000;stroke-width:0" /><path
           d="m 501.95,409.87 -0.01,0.71 -0.02,0.68 -0.03,0.66 -0.04,0.64 -0.06,0.62 -0.07,0.6 -0.09,0.57 -0.11,0.56 -0.13,0.55 -0.15,0.53 -0.17,0.51 -0.19,0.5 -0.21,0.49 -0.24,0.48 -0.26,0.47 -0.14,0.23 -0.15,0.23 c -1.08,1.61 -3.23,3 -6.03,3 v -0.98 c 1.89,0 3.7,-1.14 4.33,-3.17 0.56,-1.88 0.59,-4.39 0.59,-7.43 0,-2.57 0,-5.15 -0.45,-7.34 -0.7,-3.17 -3.06,-3.94 -4.47,-3.94 h 0 c -1.59,0 -3.72,0.94 -4.42,3.8 -0.48,2.05 -0.48,4.91 -0.48,7.48 0,2.55 0,5.21 0.51,7.11 0.74,2.75 2.97,3.49 4.39,3.49 v 0.98 c -8.08,0 -8.08,-9.51 -8.08,-12.03 0,-2.5 0,-11.81 8.08,-11.81 8.1,0 8.1,9.31 8.1,11.81 z"
           id="path8104"
           inkscape:connector-curvature="0"
           style="fill:#000000;stroke-width:0" /></g>    </g>
    <g
       id="g8506"
       transform="matrix(0.2434302,0,0,0.2434302,438.93823,406.435)"
       style="fill:#ff0000">
      <g
         word-spacing="normal"
         letter-spacing="normal"
         font-size-adjust="none"
         font-stretch="normal"
         font-weight="normal"
         font-variant="normal"
         font-style="normal"
         stroke-miterlimit="10.433"
         xml:space="preserve"
         transform="matrix(1.0629921,0,0,-1.0629921,-186.02362,789.27165)"
         id="g8508"
         style="font-style:normal;font-variant:normal;font-weight:normal;font-stretch:normal;letter-spacing:normal;word-spacing:normal;text-anchor:start;fill:#ff0000;stroke:#000000;stroke-linecap:butt;stroke-linejoin:miter;stroke-miterlimit:10.43299961;stroke-opacity:1;stroke-dasharray:none;stroke-dashoffset:0"><path
           id="path8510"
           d="m 484.51,442.17 -0.46,-0.38 -0.46,-0.36 -0.47,-0.35 -0.47,-0.33 -0.47,-0.31 -0.48,-0.29 -0.48,-0.27 -0.48,-0.25 -0.24,-0.11 -0.24,-0.11 -0.24,-0.1 -0.24,-0.1 -0.25,-0.08 -0.24,-0.09 -0.24,-0.07 -0.24,-0.07 -0.24,-0.06 -0.24,-0.05 -0.24,-0.05 -0.24,-0.04 -0.24,-0.02 -0.24,-0.03 -0.24,-0.01 -0.24,0 c -1.99,0 -3.44,0.84 -5.18,1.84 -1.45,0.84 -3,1.69 -4.98,1.69 -1.25,0 -2.55,-0.39 -3.64,-0.89 -1,-0.5 -2,-1.05 -2.84,-1.75 l -2.69,-2.19 0.7,-0.84 c 2.44,2.03 5.08,3.53 7.61,3.53 2,0 3.45,-0.85 5.19,-1.85 1.45,-0.84 2.98,-1.68 4.98,-1.68 1.25,0 2.55,0.39 3.64,0.89 0.99,0.5 1.99,1.04 2.83,1.75 l 2.7,2.18 z"
           inkscape:connector-curvature="0"
           style="fill:#ff0000;stroke-width:0" /><path
           id="path8512"
           d="m 479.74,425.18 0.01,0.04 0.01,0.03 0.01,0.06 0.02,0.05 0.01,0.06 0.01,0.05 0.02,0.04 0.01,0.05 0.01,0.04 0.01,0.04 0,0.04 0.01,0.04 0.01,0.04 0.01,0.03 0,0.03 0.01,0.03 0,0.03 0.01,0.03 0,0.03 0.01,0.05 0,0.06 0,0.05 0,0.05 0.01,0.05 0,0.03 0,0.03 0,0.03 0,0.03 c 0,0.91 -0.69,1.35 -1.44,1.35 -0.5,0 -1.3,-0.3 -1.75,-1.05 -0.1,-0.25 -0.5,-1.78 -0.69,-2.69 -0.36,-1.29 -0.7,-2.64 -1,-3.98 l -2.25,-8.97 c -0.19,-0.75 -2.33,-4.23 -5.62,-4.23 -2.54,0 -3.1,2.18 -3.1,4.03 0,2.29 0.86,5.39 2.55,9.76 0.8,2.05 1,2.6 1,3.6 0,2.23 -1.59,4.07 -4.09,4.07 -4.74,0 -6.58,-7.21 -6.58,-7.67 0,-0.5 0.5,-0.5 0.61,-0.5 0.5,0 0.54,0.11 0.79,0.91 1.35,4.69 3.33,6.17 5.03,6.17 0.4,0 1.25,0 1.25,-1.59 0,-1.25 -0.5,-2.53 -0.85,-3.49 -1.99,-5.28 -2.9,-8.12 -2.9,-10.47 0,-4.42 3.15,-5.92 6.08,-5.92 1.96,0 3.64,0.85 5.03,2.24 -0.64,-2.58 -1.23,-5.03 -3.23,-7.68 -1.3,-1.68 -3.19,-3.14 -5.48,-3.14 -0.69,0 -2.94,0.16 -3.79,2.1 0.8,0 1.46,0 2.14,0.61 0.5,0.43 1,1.09 1,2.03 0,1.55 -1.34,1.75 -1.84,1.75 -1.14,0 -2.8,-0.8 -2.8,-3.24 0,-2.5 2.21,-4.34 5.29,-4.34 5.14,0 10.26,4.55 11.67,10.17 z"
           inkscape:connector-curvature="0"
           style="fill:#ff0000;stroke-width:0" /></g>    </g>
    <g
       id="g8922"
       transform="matrix(0.26441838,0,0,0.26441838,471.2343,400.29037)">
      <g
         id="g8924"
         transform="matrix(1.0629921,0,0,-1.0629921,-186.02362,789.27165)"
         xml:space="preserve"
         stroke-miterlimit="10.433"
         font-style="normal"
         font-variant="normal"
         font-weight="normal"
         font-stretch="normal"
         font-size-adjust="none"
         letter-spacing="normal"
         word-spacing="normal"
         style="font-style:normal;font-variant:normal;font-weight:normal;font-stretch:normal;letter-spacing:normal;word-spacing:normal;text-anchor:start;fill:none;stroke:#000000;stroke-linecap:butt;stroke-linejoin:miter;stroke-miterlimit:10.43299961;stroke-opacity:1;stroke-dasharray:none;stroke-dashoffset:0"><path
           d="m 479.74,425.18 0.01,0.04 0.01,0.03 0.01,0.06 0.02,0.05 0.01,0.06 0.01,0.05 0.02,0.04 0.01,0.05 0.01,0.04 0.01,0.04 0,0.04 0.01,0.04 0.01,0.04 0.01,0.03 0,0.03 0.01,0.03 0,0.03 0.01,0.03 0,0.03 0.01,0.05 0,0.06 0,0.05 0,0.05 0.01,0.05 0,0.03 0,0.03 0,0.03 0,0.03 c 0,0.91 -0.69,1.35 -1.44,1.35 -0.5,0 -1.3,-0.3 -1.75,-1.05 -0.1,-0.25 -0.5,-1.78 -0.69,-2.69 -0.36,-1.29 -0.7,-2.64 -1,-3.98 l -2.25,-8.97 c -0.19,-0.75 -2.33,-4.23 -5.62,-4.23 -2.54,0 -3.1,2.18 -3.1,4.03 0,2.29 0.86,5.39 2.55,9.76 0.8,2.05 1,2.6 1,3.6 0,2.23 -1.59,4.07 -4.09,4.07 -4.74,0 -6.58,-7.21 -6.58,-7.67 0,-0.5 0.5,-0.5 0.61,-0.5 0.5,0 0.54,0.11 0.79,0.91 1.35,4.69 3.33,6.17 5.03,6.17 0.4,0 1.25,0 1.25,-1.59 0,-1.25 -0.5,-2.53 -0.85,-3.49 -1.99,-5.28 -2.9,-8.12 -2.9,-10.47 0,-4.42 3.15,-5.92 6.08,-5.92 1.96,0 3.64,0.85 5.03,2.24 -0.64,-2.58 -1.23,-5.03 -3.23,-7.68 -1.3,-1.68 -3.19,-3.14 -5.48,-3.14 -0.69,0 -2.94,0.16 -3.79,2.1 0.8,0 1.46,0 2.14,0.61 0.5,0.43 1,1.09 1,2.03 0,1.55 -1.34,1.75 -1.84,1.75 -1.14,0 -2.8,-0.8 -2.8,-3.24 0,-2.5 2.21,-4.34 5.29,-4.34 5.14,0 10.26,4.55 11.67,10.17 z"
           id="path8926"
           inkscape:connector-curvature="0"
           style="fill:#000000;stroke-width:0" /></g>    </g>
    <g
       id="g9342"
       transform="matrix(0.19497396,0,0,0.19497396,495.31516,450.78581)"
       style="fill:#0000ff">
      <g
         word-spacing="normal"
         letter-spacing="normal"
         font-size-adjust="none"
         font-stretch="normal"
         font-weight="normal"
         font-variant="normal"
         font-style="normal"
         stroke-miterlimit="10.433"
         xml:space="preserve"
         transform="matrix(1.0629921,0,0,-1.0629921,-186.02362,789.27165)"
         id="g9344"
         style="font-style:normal;font-variant:normal;font-weight:normal;font-stretch:normal;letter-spacing:normal;word-spacing:normal;text-anchor:start;fill:#0000ff;stroke:#000000;stroke-linecap:butt;stroke-linejoin:miter;stroke-miterlimit:10.43299961000000000;stroke-opacity:1;stroke-dasharray:none;stroke-dashoffset:0"><polygon
           id="polygon9346"
           points="485.51,435.29 471.4,443.26 457.31,435.29 457.86,434.2 471.36,440.32 484.92,434.2 "
           style="fill:#0000ff;stroke-width:0" /><path
           id="path9348"
           d="m 479.74,425.18 0.01,0.04 0.01,0.03 0.01,0.06 0.02,0.05 0.01,0.06 0.01,0.05 0.02,0.04 0.01,0.05 0.01,0.04 0.01,0.04 0,0.04 0.01,0.04 0.01,0.04 0.01,0.03 0,0.03 0.01,0.03 0,0.03 0.01,0.03 0,0.03 0.01,0.05 0,0.06 0,0.05 0,0.05 0.01,0.05 0,0.03 0,0.03 0,0.03 0,0.03 c 0,0.91 -0.69,1.35 -1.44,1.35 -0.5,0 -1.3,-0.3 -1.75,-1.05 -0.1,-0.25 -0.5,-1.78 -0.69,-2.69 -0.36,-1.29 -0.7,-2.64 -1,-3.98 l -2.25,-8.97 c -0.19,-0.75 -2.33,-4.23 -5.62,-4.23 -2.54,0 -3.1,2.18 -3.1,4.03 0,2.29 0.86,5.39 2.55,9.76 0.8,2.05 1,2.6 1,3.6 0,2.23 -1.59,4.07 -4.09,4.07 -4.74,0 -6.58,-7.21 -6.58,-7.67 0,-0.5 0.5,-0.5 0.61,-0.5 0.5,0 0.54,0.11 0.79,0.91 1.35,4.69 3.33,6.17 5.03,6.17 0.4,0 1.25,0 1.25,-1.59 0,-1.25 -0.5,-2.53 -0.85,-3.49 -1.99,-5.28 -2.9,-8.12 -2.9,-10.47 0,-4.42 3.15,-5.92 6.08,-5.92 1.96,0 3.64,0.85 5.03,2.24 -0.64,-2.58 -1.23,-5.03 -3.23,-7.68 -1.3,-1.68 -3.19,-3.14 -5.48,-3.14 -0.69,0 -2.94,0.16 -3.79,2.1 0.8,0 1.46,0 2.14,0.61 0.5,0.43 1,1.09 1,2.03 0,1.55 -1.34,1.75 -1.84,1.75 -1.14,0 -2.8,-0.8 -2.8,-3.24 0,-2.5 2.21,-4.34 5.29,-4.34 5.14,0 10.26,4.55 11.67,10.17 z"
           inkscape:connector-curvature="0"
           style="fill:#0000ff;stroke-width:0" /></g>    </g>
    <g
       id="g9589"
       transform="translate(21.412639,79.192778)"
       style="fill:#ff6600;fill-opacity:1">
      <path
         id="path9564"
         d="m 456.76883,436.40374 0.0442,-0.0718 0.0442,-0.07 0.0424,-0.07 0.0387,-0.0681 0.0387,-0.0682 0.0368,-0.0663 0.0331,-0.0645 0.0332,-0.0645 0.0331,-0.0645 0.0295,-0.0626 0.0276,-0.0608 0.0276,-0.0608 0.0258,-0.0608 0.0258,-0.0589 0.0442,-0.11419 0.0424,-0.11235 0.0368,-0.1105 0.035,-0.10498 0.0295,-0.10314 0.0295,-0.0994 0.0258,-0.0976 0.0239,-0.0958 0.0239,-0.0921 c 0.31862,-1.26528 0.67039,-2.36849 1.23581,-3.00205 0.11235,-0.11971 0.18418,-0.20075 0.47886,-0.20075 0.63356,0 0.65013,0.63356 0.65013,0.7588 0,0.1676 -0.046,0.29468 -0.046,0.34072 0,0.0663 0.0571,0.0663 0.0663,0.0663 0.14734,0 0.39413,-0.1013 0.62435,-0.2689 0.16392,-0.12524 0.2468,-0.21733 0.2468,-0.59488 0,-0.49543 -0.25785,-0.87115 -0.76985,-0.87115 -0.29468,0 -1.10321,0.0737 -2.00014,0.97981 -0.73486,0.75512 -1.16583,2.40716 -1.34079,3.09413 -0.16576,0.63357 -0.23943,0.91904 -0.51385,1.46788 -0.0663,0.10866 -0.30389,0.51569 -0.43097,0.63356 -0.24679,0.23022 -0.33888,0.39413 -0.33888,0.44017 0,0.0166 0.0166,0.0534 0.0829,0.0534 0.035,0 0.22653,-0.0368 0.46596,-0.19155 0.15471,-0.0921 0.17497,-0.1105 0.38493,-0.33151 0.46043,0.0111 0.7809,0.0921 1.35921,0.25969 0.46964,0.12523 0.9356,0.26337 1.40341,0.26337 0.74406,0 1.49734,-0.55805 1.79017,-0.96324 0.18234,-0.24679 0.23943,-0.47517 0.23943,-0.5028 0,-0.0645 -0.0571,-0.0645 -0.0663,-0.0645 -0.14734,0 -0.36467,0.1013 -0.52306,0.20996 -0.24863,0.15655 -0.26521,0.20996 -0.32046,0.36835 -0.046,0.14734 -0.0995,0.21917 -0.13813,0.27442 -0.0718,0.10867 -0.0829,0.10867 -0.22101,0.10867 -0.44018,0 -0.89877,-0.13445 -1.50287,-0.30205 -0.25784,-0.0718 -0.76248,-0.21917 -1.22292,-0.21917 -0.11787,0 -0.24679,0.009 -0.36466,0.035 z"
         inkscape:connector-curvature="0"
         style="font-style:normal;font-variant:normal;font-weight:normal;font-stretch:normal;letter-spacing:normal;word-spacing:normal;text-anchor:start;fill:#ff6600;stroke:#000000;stroke-width:0;stroke-linecap:butt;stroke-linejoin:miter;stroke-miterlimit:10.43299961000000000;stroke-opacity:1;stroke-dasharray:none;stroke-dashoffset:0;fill-opacity:1" />
      <path
         id="path9566"
         d="m 463.50962,432.34638 0.0479,-0.0221 0.0479,-0.0203 0.0442,-0.0203 0.0442,-0.0184 0.0424,-0.0184 0.0405,-0.0184 0.0387,-0.0166 0.0387,-0.0166 0.0368,-0.0147 0.035,-0.0147 0.0331,-0.0147 0.0332,-0.0129 0.0313,-0.0147 0.0295,-0.0111 0.0295,-0.0129 0.0276,-0.0111 0.0258,-0.0111 0.0258,-0.011 0.0258,-0.0111 0.0221,-0.009 0.024,-0.0111 0.0221,-0.009 0.0203,-0.009 0.0203,-0.007 0.0203,-0.009 0.0184,-0.007 0.035,-0.0166 0.0332,-0.0147 0.0313,-0.0147 c 0.12339,-0.0497 0.18049,-0.0755 0.18049,-0.19891 0,-0.10866 -0.0829,-0.20444 -0.19891,-0.20444 -0.046,0 -0.0571,0 -0.13445,0.0571 l -0.87299,0.58383 0.0958,-0.9485 c 0.0147,-0.11603 0,-0.27626 -0.19339,-0.27626 -0.0773,0 -0.19891,0.0516 -0.19891,0.19154 0,0.0589 0.0258,0.25048 0.0331,0.31494 0.0129,0.10866 0.0571,0.57278 0.0718,0.71828 l -0.86746,-0.58383 c -0.0663,-0.0368 -0.0829,-0.0571 -0.13997,-0.0571 -0.11787,0 -0.20259,0.0958 -0.20259,0.20444 0,0.12892 0.0792,0.16023 0.13628,0.18601 l 0.96876,0.40335 c -0.52674,0.2339 -0.76248,0.3223 -0.92271,0.39966 -0.12156,0.0534 -0.18233,0.0792 -0.18233,0.19891 0,0.1105 0.0847,0.20443 0.20259,0.20443 0.0424,0 0.0571,0 0.1326,-0.0571 l 0.87483,-0.58383 -0.10498,1.03322 c 0,0.13997 0.12156,0.19154 0.19891,0.19154 0.0774,0 0.19891,-0.0516 0.19891,-0.19154 0,-0.0589 -0.0258,-0.25048 -0.0313,-0.31494 -0.0111,-0.10866 -0.0571,-0.5691 -0.07,-0.71828 l 0.76801,0.51385 c 0.1676,0.12708 0.18234,0.12708 0.23943,0.12708 0.11603,0 0.19891,-0.0939 0.19891,-0.20443 0,-0.12893 -0.0773,-0.16024 -0.13445,-0.18602 z"
         inkscape:connector-curvature="0"
         style="font-style:normal;font-variant:normal;font-weight:normal;font-stretch:normal;letter-spacing:normal;word-spacing:normal;text-anchor:start;fill:#ff6600;stroke:#000000;stroke-width:0;stroke-linecap:butt;stroke-linejoin:miter;stroke-miterlimit:10.43299961000000000;stroke-opacity:1;stroke-dasharray:none;stroke-dashoffset:0;fill-opacity:1" />
      <path
         id="path9568"
         d="m 464.84489,437.82741 -0.002,-0.0645 -0.004,-0.0645 -0.007,-0.0626 -0.0111,-0.0608 -0.0129,-0.0589 -0.0166,-0.0571 -0.0184,-0.0534 -0.0203,-0.0534 -0.0239,-0.0516 -0.0258,-0.0497 -0.0295,-0.046 -0.0295,-0.046 -0.0332,-0.0424 -0.035,-0.0405 -0.0368,-0.0387 -0.0387,-0.0387 -0.0405,-0.0331 -0.0424,-0.0332 -0.0442,-0.0313 -0.046,-0.0276 -0.046,-0.0276 -0.0497,-0.0239 -0.0497,-0.0203 -0.0516,-0.0203 -0.0516,-0.0184 -0.0534,-0.0147 -0.0553,-0.0129 -0.0553,-0.011 -0.0553,-0.007 -0.0571,-0.006 -0.0589,-0.004 -0.0589,-0.002 c -0.95219,0 -1.84912,0.89141 -1.84912,1.76992 0,0.64093 0.46781,1.12162 1.16767,1.12162 l 0.006,-0.1768 c -0.31863,0 -0.64093,-0.20812 -0.64093,-0.7146 0,-0.26153 0.12339,-0.89141 0.37387,-1.25792 0.27626,-0.39597 0.64646,-0.56357 0.93561,-0.56357 0.34809,0 0.64093,0.23943 0.64093,0.71276 0,0.15286 -0.0755,0.79011 -0.35914,1.23765 -0.24311,0.37756 -0.62804,0.58568 -0.95034,0.58568 h 0 l -0.006,0.1768 c 0.91719,0 1.84175,-0.84536 1.84175,-1.76992 z"
         inkscape:connector-curvature="0"
         style="font-style:normal;font-variant:normal;font-weight:normal;font-stretch:normal;letter-spacing:normal;word-spacing:normal;text-anchor:start;fill:#ff6600;stroke:#000000;stroke-width:0;stroke-linecap:butt;stroke-linejoin:miter;stroke-miterlimit:10.43299961000000000;stroke-opacity:1;stroke-dasharray:none;stroke-dashoffset:0;fill-opacity:1" />
    </g>
    <g
       id="g9594"
       transform="translate(1.6994158,31.269251)"
       style="fill:#0000ff;fill-opacity:1">
      <path
         id="path9572"
         d="m 475.99666,436.40374 0.0442,-0.0718 0.0442,-0.07 0.0424,-0.07 0.0387,-0.0681 0.0387,-0.0682 0.035,-0.0663 0.035,-0.0645 0.0332,-0.0645 0.0313,-0.0645 0.0313,-0.0626 0.0276,-0.0608 0.0276,-0.0608 0.0258,-0.0608 0.0239,-0.0589 0.046,-0.11419 0.0424,-0.11235 0.0368,-0.1105 0.0332,-0.10498 0.0313,-0.10314 0.0276,-0.0994 0.0276,-0.0976 0.0239,-0.0958 0.0221,-0.0921 c 0.32047,-1.26528 0.67224,-2.36849 1.23766,-3.00205 0.11234,-0.11971 0.18417,-0.20075 0.47885,-0.20075 0.63172,0 0.65014,0.63356 0.65014,0.7588 0,0.1676 -0.046,0.29468 -0.046,0.34072 0,0.0663 0.0571,0.0663 0.0663,0.0663 0.1455,0 0.39413,-0.1013 0.62435,-0.2689 0.16392,-0.12524 0.24679,-0.21733 0.24679,-0.59488 0,-0.49543 -0.25968,-0.87115 -0.77169,-0.87115 -0.29284,0 -1.10136,0.0737 -1.99829,0.97981 -0.73486,0.75512 -1.16583,2.40716 -1.34264,3.09413 -0.16391,0.63357 -0.23758,0.91904 -0.512,1.46788 -0.0663,0.10866 -0.30389,0.51569 -0.43097,0.63356 -0.2468,0.23022 -0.33888,0.39413 -0.33888,0.44017 0,0.0166 0.0166,0.0534 0.0829,0.0534 0.0332,0 0.22653,-0.0368 0.46596,-0.19155 0.1547,-0.0921 0.17496,-0.1105 0.38492,-0.33151 0.46044,0.0111 0.7809,0.0921 1.35921,0.25969 0.46965,0.12523 0.93561,0.26337 1.40341,0.26337 0.74223,0 1.49734,-0.55805 1.79018,-0.96324 0.18233,-0.24679 0.23943,-0.47517 0.23943,-0.5028 0,-0.0645 -0.0571,-0.0645 -0.0663,-0.0645 -0.14734,0 -0.36467,0.1013 -0.5249,0.20996 -0.2468,0.15655 -0.26337,0.20996 -0.31862,0.36835 -0.046,0.14734 -0.1013,0.21917 -0.13814,0.27442 -0.0718,0.10867 -0.0829,0.10867 -0.22101,0.10867 -0.44017,0 -0.89877,-0.13445 -1.50286,-0.30205 -0.25969,-0.0718 -0.76248,-0.21917 -1.22292,-0.21917 -0.11787,0 -0.24679,0.009 -0.36467,0.035 z"
         inkscape:connector-curvature="0"
         style="font-style:normal;font-variant:normal;font-weight:normal;font-stretch:normal;letter-spacing:normal;word-spacing:normal;text-anchor:start;fill:#0000ff;stroke:#000000;stroke-width:0;stroke-linecap:butt;stroke-linejoin:miter;stroke-miterlimit:10.43299961000000000;stroke-opacity:1;stroke-dasharray:none;stroke-dashoffset:0;fill-opacity:1" />
      <path
         id="path9574"
         d="m 484.07272,436.92128 -0.002,-0.0663 -0.006,-0.0626 -0.007,-0.0626 -0.009,-0.0608 -0.0129,-0.0589 -0.0166,-0.0571 -0.0184,-0.0553 -0.0221,-0.0516 -0.0239,-0.0516 -0.0258,-0.0497 -0.0276,-0.046 -0.0313,-0.046 -0.0313,-0.0424 -0.035,-0.0405 -0.0368,-0.0405 -0.0387,-0.0368 -0.0405,-0.035 -0.0424,-0.0313 -0.0442,-0.0313 -0.0461,-0.0276 -0.0479,-0.0276 -0.0479,-0.0239 -0.0497,-0.0221 -0.0516,-0.0184 -0.0516,-0.0184 -0.0534,-0.0147 -0.0553,-0.0129 -0.0553,-0.0111 -0.0571,-0.007 -0.0571,-0.007 -0.0571,-0.002 -0.0589,-0.002 c -0.95218,0 -1.84911,0.89141 -1.84911,1.76992 0,0.64093 0.4678,1.12162 1.16767,1.12162 l 0.006,-0.17865 c -0.32046,0 -0.64277,-0.20627 -0.64277,-0.71275 0,-0.26153 0.12524,-0.89325 0.37572,-1.25791 0.27626,-0.39782 0.64645,-0.56358 0.93561,-0.56358 0.34624,0 0.64092,0.23759 0.64092,0.71276 0,0.15286 -0.0755,0.78826 -0.35914,1.23765 -0.24311,0.37756 -0.62803,0.58383 -0.95034,0.58383 h 0 l -0.006,0.17865 c 0.91719,0 1.84174,-0.84536 1.84174,-1.76991 z"
         inkscape:connector-curvature="0"
         style="font-style:normal;font-variant:normal;font-weight:normal;font-stretch:normal;letter-spacing:normal;word-spacing:normal;text-anchor:start;fill:#0000ff;stroke:#000000;stroke-width:0;stroke-linecap:butt;stroke-linejoin:miter;stroke-miterlimit:10.43299961000000000;stroke-opacity:1;stroke-dasharray:none;stroke-dashoffset:0;fill-opacity:1" />
    </g>
  </g>
</svg>
